<?xml version="1.0" standalone="no"?>
<!DOCTYPE svg PUBLIC "-//W3C//DTD SVG 20010904//EN"
 "http://www.w3.org/TR/2001/REC-SVG-20010904/DTD/svg10.dtd">
<svg version="1.0" xmlns="http://www.w3.org/2000/svg"
 width="900.000000pt" height="941.000000pt" viewBox="0 0 900.000000 941.000000"
 preserveAspectRatio="xMidYMid meet">

<g transform="translate(0.000000,941.000000) scale(0.100000,-0.100000)"
fill="#000000" stroke="none">
<path d="M4530 8610 l-55 -6 40 -11 c22 -7 58 -15 80 -18 22 -4 49 -9 60 -12
15 -3 13 1 -10 20 -37 31 -46 33 -115 27z"/>
<path d="M4660 8599 c14 -11 34 -24 45 -30 16 -8 15 -6 -4 10 -21 19 -21 21
-5 22 14 1 13 3 -6 9 -45 15 -56 11 -30 -11z"/>
<path d="M4778 8613 c7 -3 16 -2 19 1 4 3 -2 6 -13 5 -11 0 -14 -3 -6 -6z"/>
<path d="M4758 8583 c23 -8 42 -20 42 -27 0 -7 6 -13 13 -13 6 0 30 -3 52 -6
32 -6 24 0 -40 28 -44 19 -87 34 -95 34 -8 0 4 -7 28 -16z"/>
<path d="M4730 8571 c0 -9 30 -24 36 -18 2 1 -6 8 -16 15 -11 7 -20 8 -20 3z"/>
<path d="M4920 8549 c25 -12 65 -23 90 -24 25 -1 56 -6 70 -10 14 -4 48 -11
75 -16 28 -4 81 -16 118 -25 37 -9 70 -14 73 -12 8 9 -281 72 -325 71 -30 0
-39 2 -30 9 10 7 8 8 -8 5 -12 -3 -23 -1 -25 3 -2 4 -21 10 -43 13 l-40 7 45
-21z"/>
<path d="M6236 8192 c67 -38 134 -78 150 -89 36 -25 74 -45 74 -39 0 6 -210
135 -275 170 -101 53 -66 24 51 -42z"/>
<path d="M6820 7786 c0 -2 8 -10 18 -17 15 -13 16 -12 3 4 -13 16 -21 21 -21
13z"/>
<path d="M7395 7150 c10 -11 20 -20 23 -20 3 0 -3 9 -13 20 -10 11 -20 20 -23
20 -3 0 3 -9 13 -20z"/>
<path d="M7456 6933 c53 -82 148 -242 173 -291 12 -23 26 -42 31 -42 5 0 -16
44 -47 98 -67 117 -180 292 -188 292 -3 0 11 -26 31 -57z"/>
<path d="M7528 6960 c77 -137 182 -343 182 -356 0 -4 -23 31 -51 77 -64 105
-140 219 -146 219 -3 0 2 -11 11 -25 36 -55 124 -204 155 -261 17 -33 59 -87
92 -120 l61 -59 -62 125 c-70 141 -198 360 -236 405 l-26 30 20 -35z"/>
<path d="M7404 6961 c3 -5 6 -42 7 -83 l1 -75 81 -69 c134 -116 133 -116 70
-7 -61 106 -150 243 -159 243 -3 0 -3 -4 0 -9z m45 -116 c6 3 7 -33 2 -54 -2
-7 -31 21 -31 30 0 5 8 6 18 2 14 -5 15 -3 5 8 -7 7 -12 20 -12 29 1 11 2 11
6 -3 2 -9 8 -15 12 -12z m36 -44 c2 -11 6 -25 9 -30 4 -5 -3 -7 -14 -4 -21 6
-26 18 -10 28 5 3 6 13 3 23 -3 9 -3 14 1 11 4 -4 8 -16 11 -28z"/>
<path d="M7403 6773 c4 -6 0 -43 -8 -83 -18 -86 -19 -104 -3 -94 7 4 8 3 4 -5
-4 -6 8 -49 27 -94 20 -45 43 -106 53 -134 10 -29 21 -53 24 -53 3 0 48 39 99
88 l94 87 -16 31 c-9 18 -23 34 -32 37 -8 4 -15 13 -15 21 0 9 -39 50 -87 92
-93 80 -151 125 -140 107z m33 -45 c4 -7 3 -8 -4 -4 -7 4 -12 3 -12 -3 0 -5 6
-12 13 -14 9 -4 9 -6 0 -6 -15 -1 -26 16 -18 29 8 13 12 13 21 -2z m8 -59 c-3
-6 2 -9 11 -7 10 2 19 -3 21 -10 1 -7 0 -8 -3 -2 -2 5 -9 8 -14 5 -5 -3 -21 1
-36 10 -25 14 -25 15 -4 9 17 -4 21 -3 16 6 -5 9 -4 11 4 6 6 -4 9 -12 5 -17z
m86 -43 c-7 -9 -17 -13 -22 -10 -17 11 -78 -6 -78 -22 0 -12 4 -12 25 2 21 14
28 14 42 3 9 -8 18 -13 20 -11 1 1 3 -1 3 -5 0 -4 -6 -8 -15 -9 -8 -1 -15 4
-15 12 0 19 -13 18 -41 -4 -15 -13 -19 -21 -11 -26 7 -4 15 0 18 8 3 9 10 16
16 16 5 0 6 -4 3 -10 -3 -5 1 -10 11 -10 12 0 15 -6 12 -24 -4 -19 -1 -23 11
-19 12 3 12 2 -2 -7 -23 -15 -42 -3 -26 16 6 8 9 14 5 14 -3 0 -9 0 -13 0 -5
0 -8 -5 -8 -12 0 -6 -6 -13 -14 -16 -10 -3 -12 0 -8 11 3 9 1 19 -5 23 -7 5
-8 2 -3 -7 4 -8 -1 -6 -11 4 -14 13 -16 20 -7 25 10 6 9 13 -1 33 -13 26 -11
49 6 49 6 0 6 -6 -2 -15 -11 -13 -8 -15 16 -15 22 0 26 3 14 10 -10 6 -2 8 25
4 30 -4 36 -3 25 5 -8 6 -10 11 -4 11 5 0 16 -6 23 -12 12 -11 13 -9 7 7 -6
16 -5 17 5 8 10 -10 9 -15 -1 -27z m40 -61 c-9 -11 -16 -12 -25 -5 -10 8 -15
6 -20 -10 -4 -12 -9 -19 -12 -16 -3 3 2 17 11 31 14 21 20 24 32 14 11 -9 14
-8 14 4 0 9 -7 14 -17 12 -23 -3 -35 4 -27 16 3 6 12 5 21 -3 14 -11 15 -10 9
12 -5 19 -2 18 11 -7 13 -26 14 -35 3 -48z m10 -34 c24 -7 24 -7 -9 -14 -19
-4 -36 -5 -39 -2 -3 3 3 5 14 6 18 0 18 1 -1 9 -24 10 -1 11 35 1z m-96 -56
c-3 -7 -12 -16 -20 -19 -12 -4 -12 -2 -4 14 6 11 7 20 3 19 -20 -3 -27 2 -13
11 18 11 41 -6 34 -25z m71 2 c16 -4 14 -5 -7 -6 -14 0 -28 4 -30 11 -3 7 -7
6 -11 -5 -4 -10 -1 -17 6 -18 7 0 24 -2 40 -3 16 -1 27 3 27 11 0 17 17 25 26
12 4 -8 3 -9 -4 -5 -7 4 -12 1 -12 -8 0 -8 3 -16 8 -19 4 -2 1 -2 -7 0 -9 2
-11 -2 -7 -13 3 -9 -2 -26 -12 -39 -17 -21 -19 -22 -31 -7 -6 10 -9 12 -6 6 9
-21 -23 -23 -41 -3 -25 28 -26 48 -2 81 13 20 24 26 31 19 7 -5 21 -11 32 -14z
m-25 -122 c-7 -8 -16 -12 -21 -9 -16 9 -10 20 12 21 17 2 18 -1 9 -12z"/>
<path d="M7497 6449 c19 -23 71 -50 77 -40 12 19 -6 40 -33 39 -16 -1 -34 3
-42 7 -11 7 -12 6 -2 -6z m68 -27 c-3 -3 -11 0 -18 7 -9 10 -8 11 6 5 10 -3
15 -9 12 -12z"/>
<path d="M7484 6422 c2 -9 6 -15 11 -14 4 2 11 -2 15 -8 5 -8 9 -8 13 3 3 9
-3 19 -18 25 -19 9 -23 8 -21 -6z"/>
<path d="M7762 6615 c12 -24 23 -43 26 -41 4 5 -36 86 -43 86 -3 0 5 -20 17
-45z"/>
<path d="M7370 6540 c0 -13 -6 -49 -14 -79 -52 -208 -54 -250 -17 -270 13 -8
29 1 71 40 29 27 57 49 62 49 4 0 8 4 8 10 0 10 -99 262 -106 269 -2 2 -4 -6
-4 -19z m16 -74 c0 -13 -5 -23 -12 -23 -9 0 -10 5 -5 11 5 6 7 19 5 29 -1 11
0 16 4 12 3 -3 7 -16 8 -29z m1 -57 c1 -10 -2 -21 -8 -24 -5 -3 -6 1 -3 9 4
11 0 16 -11 16 -9 0 -14 4 -11 8 9 16 32 9 33 -9z m8 -42 c-23 -16 -63 -32
-52 -21 10 10 51 32 62 33 5 1 1 -5 -10 -12z m10 -17 c-3 -5 -1 -10 6 -10 7 0
10 -3 6 -6 -9 -9 -28 6 -22 17 4 5 8 9 11 9 3 0 2 -4 -1 -10z m-24 -27 c13
-16 12 -17 -3 -4 -10 7 -18 15 -18 17 0 8 8 3 21 -13z m-24 -24 c-9 -6 -14
-16 -11 -22 4 -7 3 -8 -1 -4 -17 15 -12 33 9 34 19 2 19 1 3 -8z m40 -48 c-12
-9 -23 -15 -25 -14 -1 1 -10 7 -20 13 -14 8 -12 9 11 6 31 -5 34 1 10 20 -15
11 -13 12 14 2 l32 -12 -22 -15z"/>
<path d="M7779 6338 c37 -84 87 -206 111 -272 25 -65 46 -114 48 -108 9 27
-199 532 -219 532 -4 0 23 -69 60 -152z"/>
<path d="M7797 6378 c79 -178 203 -515 203 -553 0 -7 7 -18 15 -25 8 -7 14
-22 13 -34 -1 -19 9 -57 66 -241 l16 -50 -6 55 c-17 156 -120 529 -205 742
-46 115 -64 144 -113 182 l-35 26 46 -102z"/>
<path d="M7601 6374 l-93 -93 35 -113 c48 -154 71 -236 98 -348 12 -52 27 -98
33 -102 22 -15 236 188 236 225 0 44 -198 533 -213 526 -1 -1 -44 -43 -96 -95z
m37 -6 c0 -7 3 -34 6 -60 4 -35 2 -47 -9 -52 -8 -3 -17 0 -21 6 -5 7 -2 8 7 3
8 -5 11 -5 7 0 -4 4 -3 14 3 21 11 14 4 34 -12 34 -5 0 -9 -5 -9 -11 0 -5 5
-7 11 -3 7 4 10 1 7 -7 -3 -8 -10 -13 -15 -12 -13 2 -13 -29 -1 -44 7 -9 16
-10 28 -3 15 8 19 5 25 -18 12 -43 15 -92 6 -92 -5 0 -11 -9 -14 -21 -5 -17
-2 -20 15 -16 12 4 17 2 12 -3 -5 -5 -23 -11 -40 -14 -24 -4 -36 -1 -50 16
-10 12 -13 18 -6 14 11 -6 17 5 13 27 0 4 4 7 10 7 6 0 9 -7 5 -15 -3 -8 0
-15 7 -16 7 0 3 -4 -8 -9 -19 -8 -19 -9 2 -9 16 -1 24 6 29 24 8 32 4 36 -36
37 -17 1 -27 4 -22 7 5 3 9 14 9 24 0 13 -6 17 -19 14 -10 -3 -16 -1 -12 4 3
5 12 9 20 9 8 0 13 4 9 10 -3 5 -11 8 -18 6 -7 -1 -9 -1 -4 1 4 3 7 9 7 14 0
6 -5 7 -10 4 -6 -3 -13 1 -16 9 -3 9 -11 13 -18 9 -7 -4 -7 -1 1 9 7 8 11 17
8 19 -2 3 5 5 16 6 12 1 18 -3 16 -10 -3 -7 -9 -11 -15 -10 -6 2 -9 -4 -5 -13
4 -11 8 -12 13 -4 6 9 9 9 13 -1 3 -8 4 -1 3 14 0 15 -6 31 -12 35 -8 5 -7 11
4 22 14 13 15 12 9 -4 -5 -12 -3 -16 5 -13 7 2 12 10 10 17 -2 7 5 21 14 31
20 22 20 23 22 7z m-12 -335 c-7 -7 -21 -4 -21 5 0 4 -4 14 -9 22 -6 9 -1 7
12 -4 12 -11 20 -21 18 -23z m34 26 c0 12 26 15 33 4 3 -5 0 -19 -6 -33 -5
-14 -12 -38 -13 -55 -6 -48 -10 -64 -17 -70 -4 -3 -5 -2 -2 2 3 3 0 12 -6 19
-6 8 -6 14 0 18 6 4 4 18 -6 36 -9 18 -19 27 -26 23 -7 -4 -6 1 2 11 9 11 24
16 37 13 16 -3 24 2 27 15 6 20 -3 24 -20 7 -14 -14 -47 -4 -38 11 5 8 11 7
21 -1 10 -8 14 -8 14 0z"/>
<path d="M7617 6353 c-10 -9 -9 -23 1 -23 5 0 9 7 9 15 0 17 -1 18 -10 8z"/>
<path d="M7590 6242 c0 -6 5 -14 10 -17 6 -4 8 -10 5 -15 -3 -5 3 -11 12 -13
17 -4 17 -5 1 -6 -32 -2 -8 -31 26 -31 21 0 27 3 17 9 -11 7 -11 9 0 14 10 4
9 6 -3 6 -10 1 -18 6 -18 12 0 5 5 7 11 3 7 -4 10 -1 7 7 -3 8 -11 13 -18 11
-7 -2 -21 5 -31 14 -11 9 -19 12 -19 6z"/>
<path d="M7648 6014 c-8 -7 2 -44 12 -44 4 0 7 11 6 25 -1 24 -7 31 -18 19z"/>
<path d="M7885 6365 c4 -11 30 -78 57 -150 69 -182 123 -370 167 -585 5 -25 9
-35 10 -24 1 30 -36 214 -60 299 -44 153 -142 421 -170 463 -9 15 -10 14 -4
-3z"/>
<path d="M7428 6217 c-79 -73 -80 -86 -20 -238 27 -68 61 -158 76 -200 l28
-77 51 -5 c53 -5 77 7 77 37 0 43 -142 538 -154 536 0 0 -27 -24 -58 -53z m37
-7 c-18 -20 -8 -29 11 -10 8 8 10 1 9 -20 -1 -19 4 -34 14 -40 14 -8 14 -10 1
-11 -8 -1 -18 -1 -22 0 -5 0 -8 -3 -8 -9 0 -5 8 -10 19 -10 10 0 24 -7 31 -15
7 -8 9 -15 5 -15 -5 0 -1 -8 8 -18 10 -11 13 -22 7 -32 -9 -15 -3 -33 8 -26 4
2 8 -10 8 -26 1 -27 0 -28 -9 -12 -10 18 -11 17 -19 -6 -5 -19 -6 -16 -4 13 2
20 0 40 -5 43 -12 7 -12 25 0 22 5 -2 9 2 10 7 1 6 -2 10 -6 10 -5 0 -14 4
-20 8 -9 5 -13 2 -13 -8 0 -13 -6 -16 -25 -11 -27 7 -35 -8 -10 -18 17 -6 20
-32 5 -41 -6 -3 -7 1 -4 10 4 9 -1 21 -11 29 -22 16 -11 39 15 31 11 -3 20 0
24 10 3 8 9 14 13 13 4 -2 9 2 11 7 2 6 -13 14 -32 18 -20 5 -36 13 -36 19 0
5 -5 6 -11 2 -6 -4 -9 -19 -5 -38 4 -25 4 -27 -5 -13 -6 10 -8 31 -4 47 5 22
10 27 23 23 14 -6 15 -4 5 8 -10 12 -10 18 -1 27 7 7 8 12 3 12 -4 0 0 9 10
20 10 11 20 20 23 20 3 0 -3 -9 -13 -20z m-47 -42 c-13 -25 -14 -29 -17 -55
-2 -16 -3 -15 -10 2 -6 14 -2 28 12 47 25 34 32 36 15 6z m52 -78 c8 -5 11
-10 5 -10 -5 0 -17 5 -25 10 -8 5 -10 10 -5 10 6 0 17 -5 25 -10z m40 -95 c0
-8 -2 -15 -4 -15 -2 0 -13 -3 -23 -6 -17 -5 -17 -5 0 6 9 6 15 15 12 21 -4 5
-1 9 4 9 6 0 11 -7 11 -15z m-37 -41 c36 -3 40 -4 34 -10 -3 -4 -20 -8 -37 -9
-17 -1 -29 0 -26 3 3 3 0 12 -7 20 -10 13 -9 14 3 7 8 -6 23 -10 33 -11z m70
-29 c-3 -9 -8 -14 -10 -11 -3 3 -2 9 2 15 9 16 15 13 8 -4z m-39 -10 c-4 -10
0 -15 12 -16 16 0 15 -2 -3 -9 -32 -13 -29 -28 5 -24 16 2 19 1 7 -2 -11 -4
-26 -11 -34 -18 -11 -8 -13 -8 -8 1 4 6 2 15 -6 20 -17 11 -16 46 3 55 24 11
30 9 24 -7z m61 -24 c3 -5 0 -13 -6 -17 -7 -4 -9 -3 -5 4 3 5 0 13 -6 15 -9 4
-10 6 -1 6 6 1 14 -3 18 -8z m-8 -47 c-3 -3 -12 -4 -19 -1 -8 3 -5 6 6 6 11 1
17 -2 13 -5z m-31 -15 c3 -6 18 -8 33 -5 14 4 21 3 15 -1 -6 -4 -13 -18 -16
-30 -5 -19 -2 -23 18 -23 13 0 24 5 24 12 0 6 3 8 6 5 4 -4 1 -13 -5 -21 -7
-9 -8 -17 -2 -20 5 -3 11 -3 14 1 2 5 2 1 -1 -7 -2 -8 -5 -21 -5 -28 0 -8 -6
-7 -19 5 -10 9 -18 12 -18 7 0 -6 -11 -10 -24 -10 -14 0 -22 4 -20 8 3 4 0 8
-7 8 -10 0 -10 3 -2 11 14 14 5 42 -10 32 -5 -3 -7 -1 -4 5 4 5 16 8 27 5 14
-4 20 0 20 11 0 9 -5 16 -11 16 -5 0 -7 -6 -3 -12 4 -8 3 -10 -2 -5 -5 5 -9
14 -9 20 0 7 -9 11 -19 9 -11 -2 -15 1 -11 7 8 14 22 14 31 0z m63 -35 c-14
-13 -16 -13 -16 0 0 8 4 13 9 10 4 -3 8 0 8 7 0 7 3 9 7 5 4 -3 0 -13 -8 -22z"/>
<path d="M7453 6147 c-1 -31 11 -26 21 9 4 13 2 21 -7 21 -7 0 -13 -13 -14
-30z"/>
<path d="M7476 5901 c-4 -5 -2 -12 3 -15 5 -4 12 -2 15 3 4 5 2 12 -3 15 -5 4
-12 2 -15 -3z"/>
<path d="M7535 5754 c2 -11 4 -23 4 -28 1 -6 8 -1 17 10 8 10 13 14 10 9 -2
-6 4 -12 15 -12 17 -2 18 1 8 13 -7 8 -18 13 -24 10 -7 -2 -17 0 -23 6 -7 7
-10 5 -7 -8z"/>
<path d="M7290 6208 c0 -9 -3 -25 -6 -35 -6 -17 -6 -17 11 -2 13 13 15 21 6
35 -9 17 -10 17 -11 2z"/>
<path d="M7270 6123 c0 -9 -25 -99 -55 -200 -30 -101 -55 -187 -55 -192 0 -7
321 -33 328 -26 7 6 -11 34 -19 29 -5 -3 -6 1 -3 9 3 8 -20 79 -50 158 -81
215 -79 209 -99 209 -9 0 -20 7 -23 15 -8 20 -24 19 -24 -2z m134 -239 c3 -8
2 -12 -4 -9 -6 3 -10 10 -10 16 0 14 7 11 14 -7z m9 -38 c4 -10 1 -13 -8 -9
-8 3 -12 9 -9 14 7 12 11 11 17 -5z"/>
<path d="M7951 5910 c0 -8 4 -22 9 -30 12 -18 12 -2 0 25 -6 13 -9 15 -9 5z"/>
<path d="M7812 5802 c-61 -59 -112 -114 -112 -122 0 -9 -5 -21 -11 -27 -7 -7
-6 -38 5 -104 18 -112 35 -233 39 -274 2 -27 7 -22 61 65 69 111 160 295 177
360 11 42 9 54 -15 128 -15 45 -28 82 -29 81 -1 0 -53 -48 -115 -107z"/>
<path d="M7145 5697 c-3 -7 -30 -84 -61 -172 -31 -88 -58 -169 -61 -181 -6
-27 17 -44 64 -49 35 -4 50 4 174 93 183 132 274 202 261 202 -5 0 -8 10 -4
22 3 13 1 19 -5 15 -6 -4 -11 -1 -10 6 1 33 -5 46 -20 46 -10 1 -61 5 -113 10
-194 20 -221 21 -225 8z m328 -51 c7 3 2 -3 -10 -14 -13 -11 -23 -26 -22 -34
0 -9 2 -9 5 -1 3 7 12 9 21 6 10 -4 14 -2 9 5 -3 6 -3 13 2 16 4 2 8 -6 8 -19
0 -13 -3 -22 -7 -19 -4 2 -17 -8 -29 -23 -12 -16 -17 -19 -12 -9 7 13 6 26 -1
37 -6 9 -7 24 -2 35 4 11 7 26 6 34 -1 11 1 10 9 -3 6 -9 17 -15 23 -11z"/>
<path d="M7971 5644 c-39 -95 -97 -208 -166 -320 l-64 -104 9 -143 c5 -78 10
-181 10 -228 0 -108 7 -112 105 -65 l72 34 17 93 c27 159 35 219 46 364 11
150 12 352 1 399 -6 28 -7 27 -30 -30z"/>
<path d="M1132 5670 c0 -14 2 -19 5 -12 2 6 2 18 0 25 -3 6 -5 1 -5 -13z"/>
<path d="M7521 5673 c0 -4 6 -23 12 -41 l12 -33 35 26 c48 35 45 49 -12 53
-27 2 -48 0 -47 -5z"/>
<path d="M8020 5679 c0 -2 11 -49 25 -104 37 -143 72 -345 81 -454 l7 -94 18
34 c23 42 24 83 3 103 -8 9 -22 53 -29 99 -7 45 -21 117 -30 160 -23 111 -75
288 -75 256z"/>
<path d="M7587 5607 l-37 -32 30 -105 c17 -58 41 -152 54 -208 14 -57 27 -106
30 -110 7 -6 27 18 47 55 10 19 8 54 -10 185 -37 269 -41 277 -114 215z"/>
<path d="M8122 5555 c0 -16 2 -22 5 -12 2 9 2 23 0 30 -3 6 -5 -1 -5 -18z"/>
<path d="M7429 5487 c-53 -39 -141 -103 -196 -142 -109 -76 -130 -107 -112
-169 46 -156 120 -475 131 -566 3 -21 18 -5 108 110 190 243 264 351 262 379
-1 14 2 35 8 46 9 16 1 58 -34 195 -58 222 -57 220 -65 220 -3 0 -49 -33 -102
-73z m95 2 c-2 -4 0 -10 6 -14 5 -3 10 -12 10 -18 0 -8 -3 -8 -9 2 -5 8 -11 9
-15 3 -3 -6 -2 -13 4 -17 7 -4 7 -12 0 -26 -6 -10 -8 -19 -4 -19 3 0 2 -6 -4
-12 -10 -13 -12 -19 -12 -38 0 -5 -5 -10 -11 -10 -8 0 -8 5 1 15 7 8 9 15 5
15 -4 0 -2 7 5 15 11 13 7 19 -12 17 -3 -1 -9 5 -12 14 -4 12 -2 12 14 4 16
-8 19 -7 17 10 -1 15 -6 19 -22 15 -15 -5 -14 -2 5 9 27 16 29 24 8 37 -9 6
-6 8 9 6 12 0 20 -4 17 -8z m-54 -151 c0 -18 -2 -20 -9 -8 -6 8 -7 18 -5 22 9
14 14 9 14 -14z m2 -73 c-2 -14 -6 -25 -8 -25 -2 0 -4 11 -4 25 0 14 4 25 9
25 4 0 6 -11 3 -25z m-191 -408 c-10 -9 -11 -8 -5 6 3 10 9 15 12 12 3 -3 0
-11 -7 -18z m39 -1 c0 -2 -7 -7 -16 -10 -8 -3 -12 -2 -9 4 6 10 25 14 25 6z
m-6 -68 c-3 -4 -11 -5 -19 -1 -21 7 -19 12 4 10 11 0 18 -5 15 -9z"/>
<path d="M8027 5476 c-4 -43 -7 -109 -7 -145 0 -36 -7 -122 -15 -191 -13 -112
-20 -157 -42 -279 l-6 -35 34 20 c19 11 56 52 82 91 l49 70 -12 99 c-13 114
-46 314 -64 394 l-13 55 -6 -79z m50 -458 c-3 -8 -6 -5 -6 6 -1 11 2 17 5 13
3 -3 4 -12 1 -19z m5 -45 c-3 -16 -7 -22 -10 -15 -4 13 4 42 11 42 2 0 2 -12
-1 -27z"/>
<path d="M1164 5481 c0 -11 4 -17 8 -15 4 3 9 -7 10 -23 2 -46 3 -51 10 -58 7
-7 3 39 -8 88 -6 31 -20 36 -20 8z"/>
<path d="M8131 5484 c0 -11 3 -14 6 -6 3 7 2 16 -1 19 -3 4 -6 -2 -5 -13z"/>
<path d="M8164 5345 c2 -77 9 -151 15 -165 9 -20 10 2 6 105 -8 189 -25 238
-21 60z"/>
<path d="M1195 5360 c3 -5 8 -10 11 -10 2 0 4 5 4 10 0 6 -5 10 -11 10 -5 0
-7 -4 -4 -10z"/>
<path d="M1206 5325 c-3 -8 -1 -15 4 -15 6 0 10 7 10 15 0 8 -2 15 -4 15 -2 0
-6 -7 -10 -15z"/>
<path d="M6941 5144 l-64 -165 28 -29 c16 -17 32 -30 35 -30 4 0 33 66 64 146
40 102 54 153 49 168 -4 11 -6 25 -5 30 3 9 -27 46 -37 46 -3 0 -35 -75 -70
-166z"/>
<path d="M1210 5284 c-8 -10 -10 -15 -3 -11 14 9 28 -27 17 -45 -5 -10 -4 -10
5 -2 8 8 10 21 4 44 -8 30 -10 31 -23 14z"/>
<path d="M1241 5204 c0 -11 3 -14 6 -6 3 7 2 16 -1 19 -3 4 -6 -2 -5 -13z"/>
<path d="M1065 5184 l-30 -26 35 23 c45 29 45 29 34 29 -5 0 -22 -12 -39 -26z"/>
<path d="M7070 5183 c-6 -15 -33 -85 -61 -155 l-51 -127 105 -113 c57 -62 120
-131 140 -153 l36 -40 -34 160 c-19 88 -48 214 -66 280 -17 66 -34 130 -36
143 -8 34 -22 36 -33 5z m20 -198 c0 -2 -6 -8 -13 -14 -10 -8 -14 -7 -14 2 0
8 6 14 14 14 7 0 13 -1 13 -2z m30 -21 c0 -8 -19 -13 -24 -6 -3 5 1 9 9 9 8 0
15 -2 15 -3z m-85 -92 c-3 -3 -11 0 -18 7 -9 10 -8 11 6 5 10 -3 15 -9 12 -12z"/>
<path d="M7708 5171 c-11 -16 -15 -34 -11 -49 4 -18 0 -29 -15 -41 -17 -13
-25 -44 -47 -176 -21 -131 -73 -375 -115 -542 -4 -18 -7 -33 -5 -33 2 0 49 81
104 179 78 139 100 185 96 204 -4 15 -1 30 9 40 13 13 16 41 15 159 -1 79 -4
175 -8 213 -6 70 -6 70 -23 46z"/>
<path d="M8208 4960 c-4 -80 -10 -176 -12 -215 -5 -66 -4 -64 10 25 8 55 13
145 12 215 l-3 120 -7 -145z"/>
<path d="M947 5013 c-9 -43 -19 -96 -22 -119 -3 -22 -10 -55 -15 -72 -5 -18
-7 -32 -5 -32 3 0 0 -12 -5 -26 l-10 -26 57 33 c69 38 75 44 46 36 -16 -3 -23
-1 -23 10 0 8 4 12 8 9 5 -3 9 1 9 9 0 8 -4 12 -9 9 -4 -3 -8 2 -8 11 0 9 4
14 9 11 5 -4 8 2 7 11 -2 10 -10 18 -19 18 -8 0 -19 4 -23 8 -4 4 4 7 19 7 20
0 25 4 22 19 -2 11 -6 50 -10 88 -3 37 -7 69 -9 70 -2 2 -10 -32 -19 -74z m22
-125 c14 5 14 3 3 -10 -7 -9 -12 -22 -11 -30 3 -27 -1 -61 -8 -54 -13 12 -14
48 -1 40 7 -4 8 -3 4 5 -13 20 -26 1 -21 -29 3 -18 0 -30 -9 -33 -11 -4 -13 0
-10 16 2 12 7 38 11 57 4 19 6 40 4 45 -1 6 3 5 10 -2 6 -6 19 -9 28 -5z"/>
<path d="M8157 5035 c-18 -37 -23 -95 -9 -95 32 0 51 67 33 113 -6 15 -9 12
-24 -18z"/>
<path d="M7497 4872 c-76 -103 -160 -214 -187 -248 l-49 -60 65 -82 65 -81
-26 -168 c-14 -92 -27 -174 -30 -180 -11 -30 7 -6 73 100 68 109 72 117 111
278 61 251 130 613 119 624 -2 2 -66 -80 -141 -183z m-82 -190 c-3 -3 -11 0
-18 7 -9 10 -8 11 6 5 10 -3 15 -9 12 -12z m-78 -135 c0 -8 -6 -14 -14 -14 -9
0 -10 4 -2 14 6 7 12 13 14 13 1 0 2 -6 2 -13z"/>
<path d="M1291 5028 c-1 -9 3 -28 8 -41 9 -22 5 -26 -39 -45 -27 -12 -51 -26
-55 -31 -4 -7 93 31 112 43 1 1 -4 22 -12 46 -7 25 -14 37 -14 28z"/>
<path d="M8086 4920 l-27 -41 25 16 c14 9 28 26 32 37 11 35 -2 30 -30 -12z"/>
<path d="M8173 4938 c-25 -32 -34 -66 -53 -200 -12 -79 -30 -192 -41 -251 -11
-60 -19 -116 -17 -125 2 -11 18 9 41 50 30 54 40 87 53 170 14 89 35 358 29
366 -1 1 -7 -3 -12 -10z m-51 -445 c-3 -16 -7 -22 -10 -15 -4 13 4 42 11 42 2
0 2 -12 -1 -27z"/>
<path d="M1300 4920 c-12 -7 -10 -9 8 -7 12 0 22 5 22 9 0 11 -12 10 -30 -2z"/>
<path d="M1111 4869 c-35 -16 -61 -32 -58 -35 3 -3 36 11 73 30 84 42 74 46
-15 5z"/>
<path d="M8066 4865 c-49 -29 -115 -104 -116 -130 0 -11 13 -54 29 -95 17 -42
39 -109 49 -150 l20 -75 7 40 c3 22 10 60 15 85 5 25 13 79 19 120 23 160 31
219 31 224 0 10 -13 5 -54 -19z"/>
<path d="M1120 4835 c-47 -24 -82 -44 -77 -44 10 -1 167 78 167 84 0 7 4 9
-90 -40z"/>
<path d="M7964 4812 c-14 -9 -27 -45 -14 -37 9 6 34 45 28 45 -2 0 -8 -4 -14
-8z"/>
<path d="M1361 4795 c0 -11 4 -27 9 -35 9 -13 10 -13 9 0 0 8 -4 24 -9 35 l-9
20 0 -20z"/>
<path d="M7853 4760 c-36 -17 -63 -35 -63 -44 0 -8 -7 -19 -15 -24 -13 -7 -15
-22 -9 -90 l7 -83 68 102 c37 56 65 107 63 114 -3 6 2 18 11 25 16 13 20 31 8
29 -5 0 -36 -13 -70 -29z"/>
<path d="M948 4749 c-31 -17 -58 -40 -61 -50 -3 -10 -1 -17 4 -13 5 3 9 1 9
-5 0 -5 -4 -12 -9 -15 -22 -14 -48 -236 -27 -235 5 0 13 -5 18 -13 7 -9 8 -8
4 5 -3 10 -6 24 -7 30 0 7 -5 3 -10 -8 l-9 -20 3 20 c2 13 9 19 20 17 13 -2
17 5 18 30 0 18 2 45 3 61 1 15 -3 27 -8 27 -5 0 -1 7 10 16 10 8 14 13 9 10
-19 -9 -32 8 -24 34 l7 25 1 -25 c1 -18 7 -26 21 -27 13 -1 18 2 13 10 -5 9
-3 9 8 1 8 -6 31 -12 52 -13 l38 -2 -6 50 c-3 28 -10 64 -15 80 -4 16 -6 32
-2 35 11 11 -3 5 -60 -25z"/>
<path d="M7848 4603 l-78 -114 0 -187 c0 -171 -23 -536 -36 -572 -17 -49 29
34 140 252 70 135 129 261 131 279 2 18 8 35 13 38 31 21 17 127 -42 297 -47
138 -40 138 -128 7z"/>
<path d="M8201 4618 c-32 -128 -89 -503 -78 -514 7 -8 38 107 31 118 -4 6 -3
8 3 5 21 -13 61 189 69 341 4 78 5 142 3 142 -2 0 -15 -42 -28 -92z m-44 -360
c-3 -8 -6 -5 -6 6 -1 11 2 17 5 13 3 -3 4 -12 1 -19z"/>
<path d="M7611 4461 c-88 -155 -129 -237 -142 -285 -12 -47 -13 -64 -5 -55 27
29 175 217 229 291 l57 78 -1 77 c0 43 -3 86 -7 95 -5 12 -42 -46 -131 -201z"/>
<path d="M1423 4602 c0 -12 5 -22 9 -22 11 0 10 12 -2 30 -7 12 -9 10 -7 -8z"/>
<path d="M934 4595 c-4 -8 -9 -13 -13 -11 -3 2 -7 -8 -8 -22 l-1 -27 12 24 c8
14 16 19 20 13 3 -6 1 -14 -5 -17 -5 -4 -8 -13 -5 -21 3 -7 1 -16 -4 -19 -4
-3 -10 1 -13 7 -3 7 -4 -3 -2 -22 1 -19 -3 -38 -8 -42 -11 -7 -13 -121 -2
-138 3 -5 11 -10 17 -10 7 0 7 4 0 13 -7 8 -7 18 -2 27 12 19 13 33 1 26 -11
-7 -8 20 3 31 4 4 6 1 4 -7 -2 -8 3 -14 10 -12 10 2 9 -5 -2 -27 -14 -26 -14
-30 -1 -41 11 -9 18 -10 29 -1 10 9 16 8 25 -3 17 -20 40 -9 36 15 -2 11 0 17
5 14 5 -3 13 3 19 12 6 10 11 13 11 7 0 -6 -7 -17 -15 -24 -8 -7 -11 -17 -7
-24 4 -6 7 -43 8 -82 l1 -72 -64 0 c-41 0 -61 4 -56 11 4 6 1 7 -7 2 -10 -6
-12 -3 -8 13 4 12 2 20 -3 16 -5 -3 -9 5 -10 18 -3 91 -4 93 -22 90 -12 -2
-22 8 -32 30 -8 18 -14 28 -15 22 -1 -32 156 -383 246 -550 l49 -91 22 48 c15
33 18 51 11 55 -7 4 -8 2 -4 -4 4 -7 2 -12 -4 -12 -6 0 -8 -4 -5 -10 3 -5 1
-10 -5 -10 -6 0 -9 -4 -6 -9 3 -5 -1 -12 -10 -15 -12 -5 -15 -2 -10 9 4 11 2
14 -6 9 -8 -5 -9 -2 -5 10 5 11 3 15 -5 10 -8 -5 -9 -2 -5 10 5 11 3 15 -5 10
-8 -5 -9 -2 -5 10 4 10 3 15 -3 11 -6 -3 -10 1 -10 9 0 10 6 13 17 9 12 -5 14
-3 7 8 -4 8 -9 23 -11 34 -1 11 1 14 3 7 3 -6 10 -10 15 -6 5 3 6 11 2 17 -4
7 -9 18 -10 25 -7 29 -12 47 -13 50 -2 1 -3 6 -4 11 0 5 -5 13 -10 18 -5 5 -6
3 -2 -4 4 -7 3 -13 -2 -13 -14 0 -13 146 1 148 35 3 52 11 48 23 -2 8 -3 35
-3 61 -1 36 -6 52 -24 69 -24 23 -33 46 -13 33 8 -5 8 -1 0 13 -6 11 -7 24 -3
28 4 5 1 5 -7 0 -11 -6 -13 -1 -9 24 3 18 0 31 -6 31 -6 0 -5 4 3 9 11 7 12
18 4 53 l-9 43 -8 -41 c-7 -38 -9 -41 -42 -41 -26 0 -34 5 -34 18 0 10 -5 21
-10 24 -6 4 -7 11 -4 17 4 6 12 1 20 -13 7 -13 11 -26 9 -30 -2 -3 3 -6 11 -6
10 0 11 4 4 11 -5 5 -10 15 -10 21 1 5 10 -1 22 -15 13 -15 19 -18 15 -8 -3
10 -2 20 4 24 6 3 8 12 5 19 -2 7 0 17 6 23 6 6 6 12 -1 16 -5 4 -8 14 -5 24
5 14 4 15 -5 2 -9 -12 -11 -13 -11 -1 0 8 -3 11 -6 8 -4 -4 -1 -13 5 -21 7 -9
8 -17 2 -20 -5 -3 -14 8 -20 26 -11 31 -11 31 -33 12 -19 -17 -21 -17 -15 -1
4 9 4 17 1 17 -2 0 -7 -7 -10 -15z m83 -44 c15 12 16 12 8 -1 -5 -8 -10 -21
-10 -27 0 -17 -19 -12 -22 5 -1 8 -5 17 -9 20 -4 4 -4 -1 -1 -10 3 -10 2 -20
-3 -23 -12 -8 -19 17 -9 37 6 11 5 19 -3 24 -6 4 -8 3 -5 -3 4 -6 0 -19 -8
-29 -8 -10 -15 -14 -15 -8 0 5 5 15 12 22 7 7 8 12 4 12 -5 0 -3 7 4 16 12 13
15 11 27 -17 12 -28 15 -30 30 -18z m-67 -72 c0 -12 -5 -19 -12 -16 -13 4 -18
25 -10 40 6 13 22 -4 22 -24z m97 -11 c-3 -7 -5 -2 -5 12 0 14 2 19 5 13 2 -7
2 -19 0 -25z m-122 -27 c3 -5 2 -12 -3 -15 -5 -3 -9 1 -9 9 0 17 3 19 12 6z
m45 3 c0 -8 -19 -13 -24 -6 -3 5 1 9 9 9 8 0 15 -2 15 -3z m60 0 c0 -8 -19
-13 -24 -6 -3 5 1 9 9 9 8 0 15 -2 15 -3z m-66 -32 c3 -5 -1 -9 -9 -9 -8 0
-12 4 -9 9 3 4 7 8 9 8 2 0 6 -4 9 -8z m51 -34 c5 4 5 1 1 -6 -6 -10 -11 -10
-22 -1 -8 6 -14 14 -14 16 0 3 6 0 13 -6 8 -6 18 -7 22 -3z m-56 -44 c-14 -13
-16 -13 -16 0 0 8 5 12 10 9 7 -4 8 1 3 13 -6 15 -5 17 5 6 11 -10 10 -15 -2
-28z m40 10 c4 3 8 -5 8 -16 2 -20 1 -20 -12 -2 -8 11 -14 24 -14 29 0 6 3 4
6 -3 2 -6 8 -10 12 -8z m66 -24 c3 -5 1 -10 -4 -10 -6 0 -11 5 -11 10 0 6 2
10 4 10 3 0 8 -4 11 -10z m13 -37 c-2 -10 2 -17 8 -16 12 2 11 -39 -2 -71 -6
-15 -4 -17 6 -11 9 5 11 4 6 -4 -11 -17 -29 -2 -21 18 13 33 13 50 0 61 -8 6
-11 18 -8 26 7 20 14 18 11 -3z m-105 -137 c3 4 4 -6 1 -21 -4 -24 -3 -26 10
-16 8 7 12 20 9 29 -3 9 -3 14 1 11 10 -10 16 -49 6 -46 -4 1 -8 -2 -9 -8 -1
-5 4 -11 9 -11 6 -1 13 -3 18 -4 4 -1 12 -1 17 0 6 1 7 -2 3 -6 -4 -4 -2 -14
5 -23 10 -14 10 -14 -5 -3 -13 11 -18 11 -24 0 -13 -21 -13 -40 -1 -35 7 3 11
10 9 16 -1 7 2 9 8 6 6 -4 9 -9 6 -13 -3 -3 2 -11 12 -18 9 -7 18 -17 18 -23
1 -6 2 -12 4 -13 6 -9 7 -39 0 -43 -4 -2 -7 5 -6 17 0 12 -4 23 -10 25 -6 2
-9 -11 -7 -34 3 -31 2 -35 -7 -20 -6 9 -8 22 -4 29 4 6 3 8 -3 5 -13 -8 -38
47 -38 83 0 16 -6 24 -14 22 -11 -2 -12 0 -3 11 10 11 9 17 -1 26 -8 6 -17 7
-22 3 -4 -4 -2 3 4 16 11 20 8 26 -10 24 -3 -1 -6 6 -6 13 0 10 4 12 12 5 7
-5 15 -7 18 -4z m62 -15 c-1 -9 1 -21 6 -27 5 -7 3 -11 -5 -11 -8 0 -13 7 -11
16 1 9 -1 21 -6 27 -5 7 -3 11 5 11 8 0 13 -7 11 -16z m32 -243 c-3 -8 -6 -5
-6 6 -1 11 2 17 5 13 3 -3 4 -12 1 -19z"/>
<path d="M996 4071 c-4 -5 -2 -12 3 -15 5 -4 12 -2 15 3 4 5 2 12 -3 15 -5 4
-12 2 -15 -3z"/>
<path d="M1037 3989 c7 -7 15 -10 18 -7 3 3 -2 9 -12 12 -14 6 -15 5 -6 -5z"/>
<path d="M1419 4545 c-3 -6 -6 -28 -7 -50 l-1 -40 10 39 c9 39 8 70 -2 51z"/>
<path d="M1445 4501 c-4 -29 -4 -55 -1 -58 3 -4 6 9 6 28 l1 34 19 -35 c24
-45 25 -38 1 29 l-19 54 -7 -52z"/>
<path d="M7683 4372 c-40 -53 -105 -138 -145 -189 -89 -112 -93 -136 -46 -240
56 -123 138 -383 138 -437 0 -12 4 -16 9 -11 13 15 61 148 61 171 0 11 4 24 9
30 18 20 58 607 49 726 l-3 47 -72 -97z"/>
<path d="M840 4396 c0 -2 8 -10 18 -17 15 -13 16 -12 3 4 -13 16 -21 21 -21
13z"/>
<path d="M1432 4375 c0 -16 2 -22 5 -12 2 9 2 23 0 30 -3 6 -5 -1 -5 -18z"/>
<path d="M1501 4384 c0 -11 3 -14 6 -6 3 7 2 16 -1 19 -3 4 -6 -2 -5 -13z"/>
<path d="M8102 4360 c-12 -16 -22 -35 -22 -43 0 -7 -4 -17 -9 -22 -4 -6 -18
-64 -30 -130 -13 -66 -26 -133 -31 -150 -4 -16 -13 -57 -20 -90 -7 -33 -21
-93 -32 -134 -10 -40 -17 -75 -15 -77 2 -2 27 43 55 99 48 93 55 118 86 277
32 166 51 300 43 300 -2 0 -13 -13 -25 -30z"/>
<path d="M1509 4343 c-7 -10 -9 -15 -5 -11 5 4 15 0 22 -9 11 -15 11 -14 7 10
-6 32 -7 32 -24 10z"/>
<path d="M970 4311 c0 -6 4 -13 10 -16 6 -3 7 1 4 9 -7 18 -14 21 -14 7z"/>
<path d="M1462 4297 c-12 -13 -22 -33 -22 -44 0 -11 -7 -26 -15 -33 -8 -7 -14
-24 -14 -39 2 -25 2 -26 6 -2 3 13 11 31 19 38 8 8 14 24 14 36 0 11 10 31 22
44 12 13 19 23 16 23 -2 0 -14 -10 -26 -23z"/>
<path d="M816 4254 c-3 -30 -3 -60 0 -66 4 -7 2 -8 -4 -4 -7 4 -12 1 -12 -6 0
-8 13 -15 31 -16 19 -2 28 1 24 8 -3 6 -10 8 -15 5 -4 -3 -7 3 -5 12 1 10 -3
25 -9 33 -10 13 -9 13 6 1 10 -7 16 -17 13 -21 -3 -5 -1 -11 5 -15 14 -9 41
-62 47 -94 5 -25 5 -31 1 -66 -1 -8 -8 -15 -15 -15 -8 0 -12 4 -8 9 3 5 -9 3
-25 -6 -23 -11 -29 -20 -24 -32 4 -9 6 -24 6 -34 -1 -15 2 -16 14 -6 13 10 13
8 5 -14 -7 -18 -7 -28 0 -33 6 -3 8 -12 5 -20 -3 -8 1 -14 8 -14 15 0 16 16 1
40 -8 13 -7 13 8 1 10 -8 15 -16 13 -19 -3 -3 4 -18 16 -35 12 -17 17 -28 11
-24 -15 9 -20 -7 -15 -47 4 -33 21 -40 50 -22 11 6 9 13 -8 31 -15 16 -18 25
-10 30 8 5 6 13 -7 28 -9 12 1 5 23 -16 22 -21 41 -44 41 -52 0 -8 -4 -12 -8
-10 -3 3 -11 -1 -17 -8 -10 -11 -12 -18 -12 -33 0 -4 -6 -1 -14 5 -20 16 -44
4 -41 -22 1 -12 3 -22 4 -22 1 0 4 -13 6 -29 5 -39 8 -40 29 -4 11 17 14 28 8
24 -12 -7 -21 4 -27 35 -4 17 -2 19 11 8 8 -6 17 -9 21 -6 3 4 12 2 19 -4 8
-7 14 -6 20 2 4 7 3 9 -2 6 -6 -3 -11 4 -11 15 -2 21 -2 21 13 -1 8 -11 20
-21 26 -21 6 0 3 9 -6 19 -10 11 -13 22 -8 25 17 10 7 34 -29 73 -19 20 -27
32 -18 25 12 -9 19 -9 29 1 12 10 12 9 2 -4 -10 -13 -9 -19 1 -28 14 -11 27
-6 27 11 0 5 -5 6 -12 2 -7 -5 -8 -3 -3 6 6 10 12 7 26 -11 16 -21 16 -26 3
-40 -13 -14 -13 -18 1 -29 11 -9 12 -16 5 -26 -8 -9 -7 -15 3 -21 9 -5 16 -28
18 -60 2 -28 1 -49 -3 -47 -4 3 -5 -3 -1 -13 6 -16 5 -17 -13 -3 -15 11 -16
11 -6 0 18 -21 15 -30 -12 -28 -21 2 -23 5 -14 23 9 17 7 17 -18 -5 -24 -21
-26 -21 -10 -3 14 17 16 26 7 36 -6 8 -7 17 -3 21 4 4 0 6 -8 4 -8 -2 -14 3
-12 10 4 22 -18 2 -28 -24 -7 -18 -2 -46 22 -114 17 -49 34 -90 37 -90 5 0 74
160 114 264 7 16 -4 44 -44 118 -29 54 -57 94 -63 91 -6 -4 -6 -8 2 -11 27 -9
9 -19 -33 -19 -40 0 -44 2 -33 16 8 10 4 9 -10 -3 -22 -19 -22 -19 -22 0 0 11
-5 25 -11 31 -8 8 -7 13 2 18 8 5 10 4 5 -4 -5 -7 -2 -10 6 -9 7 2 12 -3 10
-10 -1 -8 2 -11 8 -7 8 5 6 13 -4 24 -9 10 -16 26 -16 37 0 11 -5 25 -10 32
-6 6 -7 10 -4 7 4 -2 13 3 21 11 12 11 18 12 29 3 8 -6 11 -16 7 -22 -4 -6 -1
-7 6 -3 7 5 10 13 7 20 -2 6 -34 77 -69 158 l-64 147 -7 -55z m51 -251 c-4 -3
-1 -13 5 -21 18 -21 18 -40 0 -54 -13 -11 -14 -11 -7 2 15 23 14 38 -1 51 -13
10 -11 29 3 29 4 0 3 -3 0 -7z m-17 -28 c14 -19 14 -19 -2 -6 -10 7 -18 18
-18 24 0 6 1 8 3 6 1 -2 9 -13 17 -24z m79 -198 c8 -10 7 -14 -2 -14 -8 0 -14
6 -14 14 0 7 1 13 2 13 2 0 8 -6 14 -13z m151 -44 c0 -6 6 -14 13 -17 6 -3 -1
-4 -18 -2 -24 2 -29 7 -27 24 2 11 -2 23 -8 27 -6 3 -7 11 -4 17 7 12 43 -29
44 -49z m2 -47 c-4 -6 -7 -14 -7 -18 0 -19 -11 -14 -11 6 0 12 6 23 13 23 6 0
9 -5 5 -11z m-128 -65 c3 -5 -2 -15 -12 -22 -15 -12 -16 -12 -5 2 7 9 10 19 6
22 -3 4 -4 7 0 7 3 0 8 -4 11 -9z m9 -35 c-10 -13 -20 -22 -22 -20 -4 4 29 44
36 44 2 0 -4 -11 -14 -24z"/>
<path d="M1420 4299 c0 -5 5 -7 10 -4 6 3 10 8 10 11 0 2 -4 4 -10 4 -5 0 -10
-5 -10 -11z"/>
<path d="M1360 4285 c-6 -8 -10 -19 -8 -24 1 -6 8 1 15 14 13 28 11 31 -7 10z"/>
<path d="M1550 4261 c0 -6 4 -13 10 -16 6 -3 7 1 4 9 -7 18 -14 21 -14 7z"/>
<path d="M913 4235 c0 -8 4 -12 9 -9 5 3 6 10 3 15 -9 13 -12 11 -12 -6z"/>
<path d="M1357 4230 c9 -10 10 -17 1 -27 -6 -7 -9 -15 -7 -18 3 -2 10 4 16 15
10 15 9 21 -5 31 -14 11 -15 11 -5 -1z"/>
<path d="M8150 4103 c-52 -171 -159 -537 -156 -540 4 -5 140 315 147 347 14
64 58 324 55 327 -2 2 -22 -59 -46 -134z"/>
<path d="M7972 4136 c-18 -40 -76 -153 -129 -252 -53 -98 -97 -186 -98 -194
-1 -8 -7 -26 -13 -40 -6 -14 -16 -59 -22 -100 -6 -41 -13 -86 -16 -100 -9 -44
104 217 212 488 103 258 131 344 66 198z"/>
<path d="M1003 4183 c0 -9 4 -10 14 -2 7 6 13 12 13 14 0 1 -6 2 -13 2 -8 0
-14 -6 -14 -14z"/>
<path d="M1377 4177 c-3 -8 -1 -20 4 -28 6 -10 9 -7 9 14 0 29 -5 35 -13 14z"/>
<path d="M7418 4136 c-23 -38 -24 -43 -7 -39 16 5 47 68 37 78 -2 2 -15 -15
-30 -39z"/>
<path d="M1319 4131 c-7 -16 -17 -27 -23 -24 -5 3 -6 1 -2 -5 4 -7 9 -12 11
-12 8 0 37 62 32 67 -3 2 -11 -9 -18 -26z"/>
<path d="M1069 4133 c-13 -16 -12 -17 4 -4 9 7 17 15 17 17 0 8 -8 3 -21 -13z"/>
<path d="M1603 4128 c1 -16 5 -28 9 -28 5 0 3 -9 -4 -19 -7 -11 -16 -17 -22
-14 -5 3 -6 1 -2 -5 4 -7 1 -12 -9 -12 -9 0 -13 -4 -10 -10 6 -10 -9 -15 -30
-10 -5 1 -4 -4 3 -11 10 -11 20 -6 53 27 40 40 40 40 25 75 -15 32 -15 33 -13
7z"/>
<path d="M1083 4118 c-11 -19 -12 -37 -3 -43 5 -3 7 3 5 12 -1 10 2 24 8 31 5
6 7 12 4 12 -3 0 -9 -6 -14 -12z"/>
<path d="M1317 4059 c-16 -27 -26 -49 -24 -49 7 0 59 91 55 95 -2 2 -16 -18
-31 -46z"/>
<path d="M1282 4083 c4 -16 -14 -53 -23 -48 -5 3 -6 -1 -3 -10 8 -19 7 -19 28
22 10 21 12 34 6 38 -6 4 -9 3 -8 -2z"/>
<path d="M7931 3952 c-51 -131 -175 -424 -228 -541 -14 -30 -27 -66 -28 -80
-2 -14 -17 -87 -34 -161 -17 -74 -30 -139 -31 -145 0 -13 164 321 234 477 37
82 63 159 77 224 31 149 69 357 67 360 -2 1 -27 -59 -57 -134z"/>
<path d="M7363 4048 c-12 -21 -19 -45 -16 -60 3 -14 0 -29 -6 -32 -13 -8 -15
-46 -2 -46 4 0 20 26 34 58 20 43 24 65 19 87 l-8 28 -21 -35z"/>
<path d="M851 4056 c-9 -11 -9 -16 1 -22 7 -4 10 -4 6 1 -4 4 -3 14 3 22 6 7
9 13 6 13 -2 0 -10 -6 -16 -14z"/>
<path d="M1401 4044 c0 -11 3 -14 6 -6 3 7 2 16 -1 19 -3 4 -6 -2 -5 -13z"/>
<path d="M1085 4010 c-6 -10 -5 -11 14 -14 14 -2 25 -15 27 -32 1 -9 -1 -13
-4 -9 -4 4 -7 11 -7 16 0 5 -4 9 -10 8 -5 -1 -8 -6 -6 -12 2 -7 4 -16 5 -22 1
-5 5 -15 9 -21 4 -7 0 -17 -8 -24 -12 -10 -12 -16 -4 -26 14 -17 55 -11 50 7
-2 8 -5 32 -7 54 -5 53 -9 62 -33 74 -13 7 -22 8 -26 1z m49 -131 c-3 -5 -10
-7 -15 -3 -5 3 -7 10 -3 15 3 5 10 7 15 3 5 -3 7 -10 3 -15z"/>
<path d="M7381 3945 l-34 -75 16 -88 c24 -123 45 -273 53 -369 l7 -83 77 0 78
0 25 62 24 61 -19 86 c-37 167 -152 473 -180 478 -8 2 -27 -28 -47 -72z"/>
<path d="M1401 3994 c0 -11 3 -14 6 -6 3 7 2 16 -1 19 -3 4 -6 -2 -5 -13z"/>
<path d="M915 3991 c-3 -5 -2 -12 3 -15 5 -3 9 1 9 9 0 17 -3 19 -12 6z"/>
<path d="M963 3961 c0 -11 5 -18 9 -15 4 3 5 11 1 19 -7 21 -12 19 -10 -4z"/>
<path d="M935 3961 c-3 -5 -2 -12 3 -15 5 -3 9 1 9 9 0 17 -3 19 -12 6z"/>
<path d="M1392 3915 l-2 -59 55 54 c30 29 53 56 50 58 -2 3 -25 -17 -49 -43
l-45 -47 -4 49 c-3 47 -3 47 -5 -12z"/>
<path d="M1362 3940 c0 -14 2 -19 5 -12 2 6 2 18 0 25 -3 6 -5 1 -5 -13z"/>
<path d="M7299 3856 c-18 -72 -15 -77 11 -19 9 21 14 49 10 62 -4 19 -9 9 -21
-43z"/>
<path d="M1193 3890 c-3 -11 -9 -17 -14 -14 -5 3 -6 -2 -3 -10 8 -22 11 -20
23 14 5 17 8 30 5 30 -3 0 -8 -9 -11 -20z"/>
<path d="M1362 3880 c0 -19 2 -27 5 -17 2 9 2 25 0 35 -3 9 -5 1 -5 -18z"/>
<path d="M956 3878 c3 -5 10 -6 15 -3 13 9 11 12 -6 12 -8 0 -12 -4 -9 -9z"/>
<path d="M1201 3833 c-10 -26 -10 -27 4 -9 8 11 15 23 15 28 0 15 -7 8 -19
-19z"/>
<path d="M1311 3788 c-22 -24 -41 -46 -41 -51 0 -4 -5 -5 -12 -1 -7 4 -8 3 -4
-4 4 -7 3 -12 -2 -12 -6 0 -13 -7 -16 -16 -9 -24 13 -4 75 67 59 69 59 78 0
17z"/>
<path d="M7296 3768 c-16 -34 -41 -109 -57 -167 -15 -58 -39 -144 -53 -190
-14 -46 -25 -85 -23 -87 1 -1 57 0 125 3 l123 6 -5 26 c-3 14 -8 55 -11 91 -4
36 -17 131 -31 212 -13 81 -24 152 -24 158 0 26 -18 4 -44 -52z"/>
<path d="M936 3812 c-3 -5 3 -17 13 -26 11 -10 22 -13 25 -8 3 5 -3 17 -13 26
-11 10 -22 13 -25 8z"/>
<path d="M1006 3811 c-4 -5 -2 -12 3 -15 5 -4 12 -2 15 3 4 5 2 12 -3 15 -5 4
-12 2 -15 -3z"/>
<path d="M7966 3714 c-38 -71 -82 -192 -73 -200 2 -2 76 163 112 249 26 62 9
42 -39 -49z"/>
<path d="M1156 3741 c-16 -35 -17 -41 -2 -69 9 -17 20 -33 25 -37 13 -8 24 12
14 28 -4 6 -8 18 -10 26 -1 8 -7 17 -13 21 -8 5 -8 15 0 35 16 43 5 40 -14 -4z"/>
<path d="M1006 3751 c-4 -5 -2 -12 3 -15 5 -4 12 -2 15 3 4 5 2 12 -3 15 -5 4
-12 2 -15 -3z"/>
<path d="M8006 3704 c-4 -14 -5 -28 -3 -31 3 -2 8 8 11 23 4 14 5 28 3 31 -3
2 -8 -8 -11 -23z"/>
<path d="M950 3696 c0 -2 8 -10 18 -17 15 -13 16 -12 3 4 -13 16 -21 21 -21
13z"/>
<path d="M1075 3563 c-27 -64 -52 -122 -54 -127 -2 -6 14 12 36 41 21 29 55
70 75 91 l36 39 -21 36 -22 36 -50 -116z m61 52 c-1 -8 -5 -17 -8 -21 -5 -4
-4 16 1 34 3 9 9 -1 7 -13z m-36 -66 c-23 -31 -30 -35 -30 -19 0 6 9 18 19 27
11 9 17 21 14 26 -3 6 -1 7 6 3 8 -5 5 -16 -9 -37z"/>
<path d="M1013 3643 c0 -9 4 -10 14 -2 7 6 13 12 13 14 0 1 -6 2 -13 2 -8 0
-14 -6 -14 -14z"/>
<path d="M7953 3527 c-23 -72 -40 -133 -38 -135 2 -2 22 55 45 128 23 72 40
133 38 135 -2 3 -23 -55 -45 -128z"/>
<path d="M8000 3467 c-35 -89 -77 -191 -93 -227 -33 -72 -89 -231 -83 -237 8
-8 141 312 191 459 31 89 54 163 52 164 -2 2 -32 -70 -67 -159z"/>
<path d="M7906 3499 c-44 -99 -140 -388 -132 -396 2 -2 19 32 38 74 34 75 152
422 146 429 -2 1 -25 -46 -52 -107z"/>
<path d="M7672 3527 c-21 -60 -30 -147 -14 -147 7 0 45 200 39 206 -1 2 -13
-25 -25 -59z"/>
<path d="M7977 3483 c-25 -60 -48 -121 -52 -138 -3 -16 19 30 49 104 31 74 54
136 52 138 -1 2 -24 -45 -49 -104z"/>
<path d="M7835 3442 c-15 -37 -80 -170 -142 -295 -63 -126 -112 -234 -111
-239 6 -16 259 488 274 545 7 28 12 52 11 54 -2 1 -16 -28 -32 -65z"/>
<path d="M7616 3379 c-18 -44 -16 -55 9 -46 10 4 15 20 15 47 0 22 -2 40 -4
40 -2 0 -11 -19 -20 -41z"/>
<path d="M998 3374 c-10 -18 -8 -200 3 -232 10 -31 14 -34 44 -30 19 2 31 0
29 -4 -3 -4 1 -8 8 -9 7 0 49 -6 93 -13 44 -8 82 -12 84 -10 9 8 -42 43 -53
37 -6 -3 -8 -3 -4 2 11 11 -11 47 -24 39 -6 -4 -8 -3 -5 3 9 14 -32 65 -44 57
-5 -3 -8 -2 -7 3 2 4 -5 19 -15 33 -9 13 -17 20 -17 15 0 -6 -6 1 -13 15 -8
14 -19 24 -25 23 -6 -2 -9 3 -7 10 5 14 -40 73 -47 61z m32 -200 c0 -8 -19
-13 -24 -6 -3 5 1 9 9 9 8 0 15 -2 15 -3z"/>
<path d="M7432 3313 c-6 -2 -10 -8 -8 -12 3 -4 6 -62 7 -130 l3 -124 27 33
c21 25 109 215 109 235 0 7 -121 5 -138 -2z"/>
<path d="M7570 3268 c-40 -95 -35 -94 40 10 l31 42 -24 0 c-20 0 -28 -10 -47
-52z"/>
<path d="M7145 3280 c-6 -26 2 -39 79 -126 48 -53 99 -114 114 -135 32 -46 44
-48 67 -13 15 23 16 43 10 165 l-8 139 -127 0 -128 0 -7 -30z"/>
<path d="M7867 3253 c-25 -59 -116 -307 -113 -310 5 -5 97 213 116 276 22 74
21 89 -3 34z"/>
<path d="M7563 3187 c-71 -97 -118 -199 -103 -227 13 -24 3 -50 -24 -60 -15
-5 -34 -39 -65 -116 -25 -60 -80 -188 -123 -284 -43 -96 -74 -170 -69 -165 5
6 56 71 113 146 98 128 108 145 153 265 56 153 186 524 182 524 -1 0 -30 -38
-64 -83z"/>
<path d="M7746 3172 c-26 -53 -75 -146 -109 -207 -33 -60 -60 -121 -59 -133 1
-15 -5 -26 -16 -29 -9 -2 -41 -48 -69 -101 -29 -53 -74 -135 -99 -182 -55
-101 -49 -96 41 29 103 144 183 268 223 346 33 66 145 365 139 371 -2 2 -24
-40 -51 -94z"/>
<path d="M7126 3219 c-36 -103 -133 -364 -159 -425 l-33 -79 -159 -71 c-149
-66 -162 -74 -195 -120 -32 -42 -40 -68 -64 -183 -15 -73 -40 -185 -55 -247
l-28 -114 26 6 c14 3 35 8 46 11 63 17 337 234 456 361 166 176 270 317 335
451 71 147 71 150 -6 243 -106 127 -159 181 -164 167z"/>
<path d="M7596 3122 c-16 -48 -50 -145 -76 -217 -26 -71 -51 -139 -55 -150 -4
-11 19 27 51 84 48 89 61 123 86 234 16 71 27 131 25 133 -2 2 -16 -36 -31
-84z"/>
<path d="M991 3025 l-1 -81 70 -69 71 -70 -56 120 c-30 66 -62 134 -70 150
-13 29 -14 27 -14 -50z"/>
<path d="M1044 3039 c107 -240 119 -261 196 -326 40 -34 78 -59 83 -56 6 3 7
1 3 -5 -7 -12 23 -32 47 -32 8 0 22 21 32 47 17 44 17 52 2 146 -13 77 -21
103 -37 114 -11 8 -20 24 -20 37 0 12 -15 37 -34 55 -28 27 -42 33 -84 34 -27
1 -47 6 -45 11 3 5 -11 7 -30 4 -20 -2 -38 -1 -39 3 -2 4 -24 10 -50 14 l-48
7 24 -53z m125 7 c9 -11 9 -16 -1 -22 -7 -4 -10 -4 -6 1 4 4 3 14 -3 22 -6 7
-9 13 -6 13 2 0 10 -6 16 -14z m-59 -11 c-5 -7 -9 -14 -7 -16 1 -2 0 -3 -2 -1
-11 7 -7 29 5 29 9 0 11 -4 4 -12z m-39 -18 c-10 -9 -11 -8 -5 6 3 10 9 15 12
12 3 -3 0 -11 -7 -18z m104 -37 c2 -12 1 -20 -2 -16 -4 4 -8 16 -10 28 -4 28
6 18 12 -12z m-52 -5 c-3 -9 -8 -14 -10 -11 -3 3 -2 9 2 15 9 16 15 13 8 -4z
m128 -58 c-10 -9 -11 -8 -5 6 3 10 9 15 12 12 3 -3 0 -11 -7 -18z m27 -4 c-1
-5 3 -19 10 -33 12 -22 11 -23 -1 -8 -17 22 -31 11 -14 -11 11 -14 10 -14 -5
-2 -10 7 -15 18 -11 25 4 6 8 14 9 19 3 15 4 17 9 17 3 0 4 -3 3 -7z m-63 -32
c3 -5 2 -12 -3 -15 -5 -3 -9 1 -9 9 0 17 3 19 12 6z m82 -46 c0 -8 -4 -12 -9
-9 -5 3 -6 10 -3 15 9 13 12 11 12 -6z m43 10 c0 -2 -6 -8 -13 -14 -10 -8 -14
-7 -14 2 0 8 6 14 14 14 7 0 13 -1 13 -2z"/>
<path d="M7751 3021 c-11 -27 -21 -56 -21 -63 1 -7 12 14 25 46 14 33 23 61
21 63 -2 2 -13 -19 -25 -46z"/>
<path d="M7442 3030 c-7 -11 -12 -25 -12 -32 1 -7 8 0 16 15 18 33 14 46 -4
17z"/>
<path d="M7406 2983 c-6 -14 -5 -15 5 -6 7 7 10 15 7 18 -3 3 -9 -2 -12 -12z"/>
<path d="M7753 2899 c-23 -49 -40 -89 -37 -89 15 0 92 166 81 176 -1 2 -21
-37 -44 -87z"/>
<path d="M7373 2920 c-6 -14 -14 -36 -18 -50 l-7 -25 21 27 c13 16 21 37 18
50 -3 23 -3 23 -14 -2z"/>
<path d="M1414 2895 c3 -16 8 -51 12 -78 3 -26 10 -49 14 -52 4 -2 15 16 25
41 l17 46 -37 37 -37 36 6 -30z"/>
<path d="M999 2848 c1 -29 8 -59 13 -65 7 -9 6 -13 -3 -13 -10 0 -10 -3 -3 -8
6 -4 10 -16 8 -27 -7 -37 48 -121 163 -249 l35 -38 39 38 c21 20 36 41 33 46
-3 4 -10 6 -15 3 -5 -3 -6 1 -3 9 3 8 -4 24 -15 35 -12 12 -18 21 -15 21 3 0
-5 18 -17 40 -12 21 -27 36 -32 33 -6 -3 -7 -1 -3 5 13 21 -33 87 -108 155
-41 37 -76 67 -78 67 -2 0 -1 -24 1 -52z"/>
<path d="M7352 2821 c-12 -16 -44 -92 -71 -168 -80 -223 -61 -186 86 165 16
40 13 40 -15 3z"/>
<path d="M1472 2777 l-30 -65 22 -91 c21 -89 22 -91 66 -119 139 -88 202 -122
212 -116 6 4 8 3 5 -3 -8 -12 20 -26 34 -17 5 3 8 0 7 -8 -2 -7 5 -12 14 -12
10 1 16 -2 13 -6 -4 -7 76 -48 83 -42 2 2 9 -4 16 -14 8 -11 18 -14 26 -9 8 5
11 4 7 -2 -3 -5 44 -33 106 -62 147 -70 147 -70 108 -28 -19 20 -39 33 -44 30
-6 -3 -7 -1 -4 4 4 6 -23 46 -59 89 -36 44 -90 112 -121 152 -30 40 -57 71
-60 68 -3 -3 -14 5 -24 17 -10 12 -18 18 -19 13 0 -6 -6 -3 -12 6 -7 9 -44 41
-83 72 -74 59 -75 59 -172 150 l-62 58 -29 -65z m183 -196 c3 -5 2 -12 -3 -15
-5 -3 -9 1 -9 9 0 17 3 19 12 6z m59 -40 c3 -5 -1 -11 -9 -14 -9 -4 -12 -1 -8
9 6 16 10 17 17 5z m10 -29 c3 -5 -1 -9 -9 -9 -8 0 -12 4 -9 9 3 4 7 8 9 8 2
0 6 -4 9 -8z m143 -118 c-3 -3 -12 -4 -19 -1 -8 3 -5 6 6 6 11 1 17 -2 13 -5z"/>
<path d="M7613 2687 c-34 -83 -61 -153 -60 -154 2 -2 39 56 118 187 l22 35
-26 -30 c-32 -36 -32 -36 -7 44 11 36 18 66 17 68 -2 1 -31 -66 -64 -150z"/>
<path d="M7502 2779 c-12 -21 -21 -39 -18 -39 7 0 49 71 44 75 -2 2 -14 -14
-26 -36z"/>
<path d="M7584 2723 c-69 -127 -175 -301 -263 -433 -123 -183 -169 -269 -100
-190 165 192 232 287 290 407 54 112 132 303 124 303 -2 0 -25 -39 -51 -87z"/>
<path d="M7270 2707 c-7 -12 -45 -83 -83 -157 -38 -74 -98 -186 -134 -247 -35
-62 -62 -117 -59 -122 4 -5 -5 -18 -18 -28 -13 -10 -60 -63 -104 -118 -44 -55
-121 -144 -172 -198 -51 -54 -90 -100 -87 -104 15 -14 251 218 384 378 88 106
122 162 163 264 47 116 130 348 127 351 -2 2 -9 -7 -17 -19z"/>
<path d="M1226 2668 c51 -101 74 -131 89 -118 8 7 12 16 9 21 -3 5 0 8 7 7 34
-8 11 26 -56 81 l-76 62 27 -53z"/>
<path d="M1412 2636 c-17 -46 -16 -49 20 -70 29 -18 31 -18 25 -2 -4 10 -10
35 -13 57 -9 51 -18 56 -32 15z"/>
<path d="M7415 2614 c-9 -14 -14 -28 -12 -31 3 -3 13 9 22 26 19 38 14 41 -10
5z"/>
<path d="M1020 2601 c0 -5 5 -13 10 -16 6 -3 10 -2 10 4 0 5 -4 13 -10 16 -5
3 -10 2 -10 -4z"/>
<path d="M7105 2499 c-115 -141 -272 -293 -405 -393 -58 -43 -107 -80 -110
-83 -2 -2 36 10 85 28 128 44 275 116 275 134 0 8 6 15 13 15 13 0 80 113 187
313 28 53 50 97 48 97 -1 0 -43 -50 -93 -111z"/>
<path d="M1338 2544 l-26 -27 28 -46 c40 -64 144 -209 137 -191 -29 76 -55
129 -62 122 -5 -4 -5 -1 -1 6 4 6 -3 40 -15 75 -32 91 -31 90 -61 61z"/>
<path d="M1390 2566 c0 -6 58 -162 89 -239 42 -106 64 -145 107 -192 l36 -40
-24 50 c-14 28 -33 71 -43 98 -10 26 -22 47 -27 47 -5 0 -7 4 -4 8 2 4 -10 56
-27 114 -29 97 -35 109 -69 132 -21 14 -38 24 -38 22z"/>
<path d="M7403 2475 c-64 -87 -108 -163 -100 -172 4 -3 115 165 161 245 19 32
-5 4 -61 -73z"/>
<path d="M7308 2468 c-31 -40 -81 -104 -112 -143 -31 -38 -56 -78 -56 -87 0
-10 -4 -18 -9 -18 -5 0 -18 -26 -29 -57 -11 -32 -29 -82 -41 -110 -11 -29 -19
-53 -17 -53 3 0 26 35 52 78 27 42 93 149 149 237 98 157 130 214 122 222 -2
2 -29 -29 -59 -69z"/>
<path d="M6470 2515 c-90 -34 -304 -110 -389 -137 l-93 -30 6 -41 c3 -23 15
-103 26 -177 11 -74 20 -147 20 -162 0 -17 5 -28 13 -28 40 0 477 519 477 566
0 27 -10 28 -60 9z"/>
<path d="M1259 2464 l-34 -36 95 -91 c118 -113 220 -202 220 -190 0 4 -26 42
-57 83 -30 41 -85 119 -120 173 -36 53 -66 97 -67 97 -1 0 -18 -16 -37 -36z
m43 -51 c-1 -4 7 -17 16 -27 16 -18 16 -18 -5 -5 -13 8 -23 22 -23 33 0 11 3
17 6 14 3 -4 6 -10 6 -15z m51 -48 c-3 -9 -8 -14 -10 -11 -3 3 -2 9 2 15 9 16
15 13 8 -4z"/>
<path d="M1512 2429 c28 -99 62 -188 110 -286 39 -79 42 -83 74 -83 19 0 34 4
34 9 0 5 9 7 20 4 18 -5 62 2 165 23 11 3 40 7 65 10 25 4 56 13 69 21 13 8
21 11 18 5 -4 -6 10 -5 37 1 l43 10 -146 72 c-123 61 -316 169 -473 264 l-37
22 21 -72z m185 -214 c0 -6 -6 -12 -13 -12 -7 0 -11 4 -8 9 3 5 0 16 -8 25
-12 15 -11 15 8 3 11 -7 21 -18 21 -25z m-39 -10 c-3 -3 -9 2 -12 12 -6 14 -5
15 5 6 7 -7 10 -15 7 -18z m79 19 c-3 -3 -12 -4 -19 -1 -8 3 -5 6 6 6 11 1 17
-2 13 -5z m-87 -44 c6 -11 8 -20 6 -20 -3 0 -10 9 -16 20 -6 11 -8 20 -6 20 3
0 10 -9 16 -20z m190 -45 c0 -2 -6 -5 -13 -8 -8 -3 -14 1 -14 8 0 7 6 11 14 8
7 -3 13 -6 13 -8z"/>
<path d="M1160 2465 c14 -16 26 -32 28 -34 1 -2 4 -2 7 1 3 2 -10 18 -28 34
l-32 29 25 -30z"/>
<path d="M1954 2461 c27 -44 160 -195 170 -193 6 2 8 0 3 -4 -4 -4 13 -29 38
-54 38 -39 51 -46 75 -42 17 2 28 8 25 12 -2 4 6 5 18 3 13 -3 29 2 35 10 11
12 7 19 -22 37 -20 12 -41 18 -47 14 -7 -4 -9 -3 -6 3 4 6 -34 38 -86 74 -50
34 -118 82 -151 106 -32 25 -55 40 -52 34z"/>
<path d="M1130 2446 c0 -2 7 -7 16 -10 8 -3 12 -2 9 4 -6 10 -25 14 -25 6z"/>
<path d="M6479 2393 c-56 -75 -228 -279 -318 -378 -61 -66 -78 -91 -66 -93 20
-4 307 47 317 56 7 7 41 145 77 317 32 147 32 145 28 145 -1 0 -19 -21 -38
-47z"/>
<path d="M1160 2409 c0 -6 -8 -18 -17 -25 -10 -7 -16 -14 -13 -17 3 -2 16 6
29 18 15 15 19 25 12 29 -6 4 -11 2 -11 -5z"/>
<path d="M1272 2335 c36 -44 71 -79 77 -77 6 1 11 -4 11 -12 0 -7 43 -54 95
-105 69 -67 101 -91 120 -91 25 0 25 1 10 24 -9 14 -28 32 -41 41 -30 19 -159
132 -264 230 l-74 70 66 -80z"/>
<path d="M1070 2370 c6 -11 13 -20 16 -20 2 0 0 9 -6 20 -6 11 -13 20 -16 20
-2 0 0 -9 6 -20z"/>
<path d="M1180 2375 c-11 -13 -10 -14 4 -9 9 3 16 10 16 15 0 13 -6 11 -20 -6z"/>
<path d="M5811 2299 c-73 -21 -134 -39 -136 -41 -1 -2 -5 -85 -9 -185 l-6
-183 72 0 c40 0 116 3 168 6 139 10 137 6 105 221 -31 212 -34 223 -48 222 -7
-1 -72 -19 -146 -40z"/>
<path d="M1240 2324 c0 -6 15 -23 33 -40 l32 -29 -30 35 c-16 19 -31 37 -32
39 -2 2 -3 0 -3 -5z"/>
<path d="M7237 2258 c-32 -43 -47 -71 -47 -93 l0 -30 20 25 c16 21 83 160 77
160 -1 0 -23 -28 -50 -62z"/>
<path d="M1200 2242 c0 -4 10 -13 23 -21 22 -14 22 -14 3 8 -20 22 -26 25 -26
13z"/>
<path d="M1320 2232 c6 -13 14 -21 18 -18 3 4 -2 14 -12 24 -18 16 -18 16 -6
-6z"/>
<path d="M5595 2239 c-108 -33 -560 -128 -844 -179 -63 -11 -116 -22 -118 -24
-7 -7 92 -86 107 -86 9 0 25 -7 37 -15 34 -24 411 -51 741 -55 l122 -1 1 28
c1 15 4 99 7 186 8 172 10 165 -53 146z"/>
<path d="M1350 2201 c0 -5 17 -24 38 -42 20 -18 36 -37 34 -42 -1 -5 1 -6 5
-4 5 3 24 -11 43 -29 27 -26 31 -34 17 -34 -10 0 -29 7 -42 16 -14 9 -25 14
-25 11 0 -6 142 -92 201 -122 42 -21 32 -11 -51 55 -36 28 -100 85 -142 126
-43 40 -78 70 -78 65z"/>
<path d="M1270 2136 c36 -37 82 -79 103 -92 49 -32 218 -106 225 -99 3 3 1 5
-4 5 -5 0 -58 29 -117 65 -59 35 -105 60 -102 55 9 -15 -8 -12 -31 4 -10 8
-19 20 -19 28 0 7 -6 13 -13 13 -8 0 -19 7 -26 15 -6 8 -27 28 -46 45 -19 16
-6 -1 30 -39z"/>
<path d="M7161 2154 c0 -6 -34 -61 -75 -123 -40 -61 -72 -111 -71 -111 2 0 38
42 80 94 63 78 76 100 72 123 -2 15 -5 23 -6 17z"/>
<path d="M7047 2095 c-33 -68 -128 -221 -173 -280 -46 -61 -30 -57 32 8 62 64
81 95 133 221 46 109 50 136 8 51z"/>
<path d="M3570 2126 c0 -8 8 -17 18 -20 9 -2 28 -8 42 -11 l25 -7 -24 26 c-26
28 -61 35 -61 12z"/>
<path d="M1350 2126 c0 -2 8 -10 18 -17 15 -13 16 -12 3 4 -13 16 -21 21 -21
13z"/>
<path d="M3665 2108 c24 -20 59 -31 165 -52 240 -46 592 -98 820 -121 l65 -7
-55 55 -55 55 -79 -13 c-71 -11 -97 -10 -265 12 -196 25 -557 79 -601 90 -25
6 -25 6 5 -19z"/>
<path d="M6817 2091 c-43 -21 -124 -53 -180 -71 -180 -57 -224 -100 -162 -160
l32 -31 96 65 c136 91 323 238 300 235 -4 0 -43 -18 -86 -38z"/>
<path d="M6958 2013 c-41 -54 -120 -146 -176 -204 -56 -59 -102 -111 -102
-116 0 -5 -12 -20 -27 -34 -32 -30 -113 -125 -113 -133 0 -3 46 29 102 72 133
101 210 197 377 475 12 20 21 37 18 37 -2 0 -37 -44 -79 -97z"/>
<path d="M6879 2083 c-24 -28 -141 -118 -251 -192 l-107 -72 37 -33 37 -34 91
96 c87 92 214 239 214 248 0 8 -8 4 -21 -13z"/>
<path d="M3540 2056 c-10 -32 -8 -40 44 -130 72 -124 133 -218 217 -337 65
-92 70 -97 116 -106 26 -6 109 -24 183 -41 134 -31 414 -82 445 -82 9 0 -34
37 -97 81 -222 160 -541 419 -708 575 -46 43 -64 53 -114 62 -78 16 -73 17
-86 -22z"/>
<path d="M3746 2033 c191 -174 518 -439 540 -437 7 1 12 -3 11 -9 -1 -6 60
-56 137 -112 106 -78 144 -101 162 -97 13 2 31 -1 38 -8 19 -15 278 49 524
130 270 89 255 72 121 134 -64 29 -199 96 -302 149 -163 84 -191 95 -222 90
-31 -5 -37 -3 -42 15 -4 17 -15 22 -62 27 -236 24 -711 98 -906 140 l-30 6 31
-28z m624 -106 c0 -2 -12 -14 -27 -28 l-28 -24 24 28 c23 25 31 32 31 24z
m220 -33 c0 -8 -19 -13 -24 -6 -3 5 1 9 9 9 8 0 15 -2 15 -3z m-59 -37 c-10
-9 -11 -8 -5 6 3 10 9 15 12 12 3 -3 0 -11 -7 -18z m-191 8 c0 -7 -30 -13 -34
-7 -3 4 4 9 15 9 10 1 19 0 19 -2z m290 1 c0 -2 -8 -10 -17 -17 -16 -13 -17
-12 -4 4 13 16 21 21 21 13z m-32 -34 c11 -7 10 -10 -3 -15 -9 -4 -13 -3 -10
3 7 11 -29 32 -40 22 -5 -4 -5 -1 -1 6 7 12 17 9 54 -16z m-278 4 c0 -2 -7 -7
-16 -10 -8 -3 -12 -2 -9 4 6 10 25 14 25 6z m-49 -29 c-10 -9 -11 -8 -5 6 3
10 9 15 12 12 3 -3 0 -11 -7 -18z m276 1 c-3 -8 -6 -5 -6 6 -1 11 2 17 5 13 3
-3 4 -12 1 -19z m93 -3 c0 -7 -30 -13 -34 -7 -3 4 4 9 15 9 10 1 19 0 19 -2z
m-390 -25 c0 -5 -2 -10 -4 -10 -3 0 -8 5 -11 10 -3 6 -1 10 4 10 6 0 11 -4 11
-10z m50 0 c0 -5 -2 -10 -4 -10 -3 0 -8 5 -11 10 -3 6 -1 10 4 10 6 0 11 -4
11 -10z m35 -10 c-3 -5 -12 -10 -18 -10 -7 0 -6 4 3 10 19 12 23 12 15 0z
m200 0 c3 -6 -1 -7 -9 -4 -18 7 -21 14 -7 14 6 0 13 -4 16 -10z m-349 -31
c-15 -9 -16 -13 -5 -20 10 -6 7 -8 -8 -6 -21 1 -21 2 -6 19 9 10 21 18 27 18
6 0 3 -5 -8 -11z m309 1 c-3 -5 -12 -10 -18 -10 -7 0 -6 4 3 10 19 12 23 12
15 0z m213 -2 c-2 -8 5 -12 17 -10 15 2 17 1 6 -7 -9 -6 -21 -5 -32 2 -13 8
-15 13 -6 19 16 10 17 10 15 -4z m-298 -2 c0 -2 -7 -7 -16 -10 -8 -3 -12 -2
-9 4 6 10 25 14 25 6z m-36 -22 c3 -8 2 -12 -4 -9 -6 3 -10 10 -10 16 0 14 7
11 14 -7z m53 -18 c0 -8 -6 -12 -15 -9 -11 5 -11 7 0 14 7 5 13 9 14 9 0 0 1
-6 1 -14z m343 9 c0 -7 -30 -13 -34 -7 -3 4 4 9 15 9 10 1 19 0 19 -2z m-75
-14 c-9 -8 -36 -10 -30 -2 2 4 11 8 20 8 8 0 13 -3 10 -6z m30 0 c3 -5 2 -12
-3 -15 -5 -3 -9 1 -9 9 0 17 3 19 12 6z m-337 -26 c-3 -3 -9 2 -12 12 -6 14
-5 15 5 6 7 -7 10 -15 7 -18z m402 20 c0 -2 -6 -8 -13 -14 -10 -8 -14 -7 -14
2 0 8 6 14 14 14 7 0 13 -1 13 -2z m-309 -28 c-10 -9 -11 -8 -5 6 3 10 9 15
12 12 3 -3 0 -11 -7 -18z m217 -12 c-3 -3 -9 2 -12 12 -6 14 -5 15 5 6 7 -7
10 -15 7 -18z m-268 0 c0 -2 -6 -5 -13 -8 -8 -3 -14 1 -14 8 0 7 6 11 14 8 7
-3 13 -6 13 -8z m310 0 c0 -2 -6 -5 -13 -8 -8 -3 -14 1 -14 8 0 7 6 11 14 8 7
-3 13 -6 13 -8z m-355 -5 c3 -6 -1 -7 -9 -4 -18 7 -21 14 -7 14 6 0 13 -4 16
-10z m406 -7 c13 -16 12 -17 -3 -4 -17 13 -22 21 -14 21 2 0 10 -8 17 -17z
m-21 -8 c0 -7 -30 -13 -34 -7 -3 4 4 9 15 9 10 1 19 0 19 -2z m161 -38 c-6 -8
-8 -17 -4 -21 4 -4 0 -4 -10 0 -17 6 -17 7 0 20 23 17 28 18 14 1z m-394 -3
c-3 -3 -12 -4 -19 -1 -8 3 -5 6 6 6 11 1 17 -2 13 -5z m40 0 c-3 -3 -12 -4
-19 -1 -8 3 -5 6 6 6 11 1 17 -2 13 -5z m28 -4 c3 -5 1 -10 -4 -10 -6 0 -11 5
-11 10 0 6 2 10 4 10 3 0 8 -4 11 -10z m235 6 c0 -2 -7 -7 -16 -10 -8 -3 -12
-2 -9 4 6 10 25 14 25 6z m24 -12 c3 -8 2 -12 -4 -9 -6 3 -10 10 -10 16 0 14
7 11 14 -7z m-335 -18 c8 -10 9 -16 1 -21 -6 -4 -10 -3 -9 2 4 21 -2 24 -18
12 -16 -13 -17 -12 -4 4 16 21 16 21 30 3z m106 5 c3 -5 2 -12 -3 -15 -5 -3
-9 1 -9 9 0 17 3 19 12 6z m232 -25 c0 -8 -6 -12 -15 -9 -11 5 -11 7 0 14 7 5
13 9 14 9 0 0 1 -6 1 -14z m72 1 c8 -10 7 -14 -2 -14 -8 0 -14 6 -14 14 0 7 1
13 2 13 2 0 8 -6 14 -13z m-359 -12 c0 -2 -9 -3 -19 -2 -11 0 -18 5 -15 9 4 6
34 0 34 -7z m327 9 c-3 -3 -12 -4 -19 -1 -8 3 -5 6 6 6 11 1 17 -2 13 -5z
m-280 -26 c-3 -8 -6 -5 -6 6 -1 11 2 17 5 13 3 -3 4 -12 1 -19z m-103 0 c-5
-7 -2 -9 8 -6 8 4 15 0 15 -7 0 -10 -5 -11 -17 -5 -10 5 -21 6 -26 2 -5 -4 -2
1 5 11 15 19 26 23 15 5z m363 -4 c-3 -3 -12 -4 -19 -1 -8 3 -5 6 6 6 11 1 17
-2 13 -5z m-37 -14 c0 -5 -2 -10 -4 -10 -3 0 -8 5 -11 10 -3 6 -1 10 4 10 6 0
11 -4 11 -10z m-215 -10 c3 -5 1 -10 -4 -10 -6 0 -11 5 -11 10 0 6 2 10 4 10
3 0 8 -4 11 -10z m-25 -4 c0 -2 -7 -7 -16 -10 -8 -3 -12 -2 -9 4 6 10 25 14
25 6z m135 -36 c-3 -5 -12 -10 -18 -10 -7 0 -6 4 3 10 19 12 23 12 15 0z"/>
<path d="M7114 2013 c-15 -21 -55 -67 -88 -103 -34 -36 -46 -51 -27 -35 47 42
102 101 129 141 31 46 21 43 -14 -3z"/>
<path d="M1395 1971 c28 -29 70 -67 95 -83 55 -38 39 -21 -65 67 -76 65 -78
66 -30 16z"/>
<path d="M1629 1986 c29 -31 35 -33 22 -7 -6 10 -18 22 -28 25 -13 5 -11 1 6
-18z"/>
<path d="M3437 1839 c-43 -88 -77 -163 -75 -165 2 -2 38 -19 79 -37 51 -24 84
-33 106 -30 24 4 34 0 42 -16 8 -13 34 -27 79 -40 37 -11 91 -27 121 -35 l53
-16 -16 23 c-64 89 -200 300 -246 380 -30 53 -57 96 -60 97 -3 0 -40 -72 -83
-161z"/>
<path d="M6859 1933 c-35 -38 -102 -103 -149 -145 -64 -59 -80 -78 -64 -78 14
0 50 30 100 83 87 91 189 207 181 207 -2 0 -33 -30 -68 -67z"/>
<path d="M1475 1955 c90 -75 236 -175 246 -169 7 4 9 3 6 -3 -8 -13 57 -57
126 -84 70 -28 187 -69 187 -65 0 5 -108 86 -115 86 -3 0 -3 -6 1 -12 4 -8 3
-10 -2 -5 -5 5 -9 14 -9 20 -1 7 -6 11 -13 9 -7 -1 -11 4 -10 10 2 7 -5 12
-14 12 -10 -1 -16 2 -13 6 7 11 -83 82 -95 75 -6 -4 -9 -1 -8 7 2 7 -5 12 -14
12 -10 -1 -16 3 -15 10 1 6 -10 11 -25 11 -14 -1 -24 3 -22 7 3 4 -8 11 -23
14 -15 4 -71 25 -123 46 -86 34 -92 35 -65 13z"/>
<path d="M1690 1962 c0 -4 13 -22 28 -40 24 -29 41 -37 127 -58 131 -31 136
-30 38 10 -45 19 -107 47 -137 64 -31 17 -56 27 -56 24z"/>
<path d="M6435 1960 c-8 -13 5 -13 25 0 13 8 13 10 -2 10 -9 0 -20 -4 -23 -10z"/>
<path d="M6225 1922 c-103 -19 -143 -31 -153 -44 -16 -22 -45 -23 -62 -3 -12
14 -31 14 -195 0 -27 -3 -73 -5 -101 -5 l-51 0 -7 -76 c-9 -107 -4 -110 138
-73 283 74 571 178 579 210 3 10 2 19 -1 18 -4 -1 -70 -13 -147 -27z"/>
<path d="M4890 1849 c52 -29 191 -99 308 -156 l213 -104 94 37 c52 21 95 43
95 50 0 7 8 20 17 30 13 12 19 38 21 90 l4 72 -213 1 c-193 1 -408 11 -574 26
l-60 6 95 -52z"/>
<path d="M6280 1859 c-108 -43 -357 -122 -487 -155 -76 -19 -113 -34 -115 -44
-4 -16 120 -170 136 -170 37 0 443 194 600 286 l79 46 -29 28 c-44 43 -93 46
-184 9z"/>
<path d="M1814 1842 c12 -20 226 -153 236 -147 6 3 9 1 8 -5 -2 -6 43 -40 99
-75 125 -80 318 -153 432 -164 42 -5 77 -8 78 -7 6 4 -200 156 -212 156 -8 0
-18 6 -22 13 -4 8 -42 24 -83 36 -107 32 -458 160 -504 183 -21 11 -36 15 -32
10z m476 -206 c0 -2 -8 -10 -17 -17 -16 -13 -17 -12 -4 4 13 16 21 21 21 13z
m179 -110 c-3 -3 -11 5 -18 17 -13 21 -12 21 5 5 10 -10 16 -20 13 -22z"/>
<path d="M1940 1817 c0 -3 19 -12 43 -20 23 -8 93 -33 156 -56 63 -22 116 -39
118 -38 7 7 -194 95 -232 102 -22 3 -50 9 -62 12 -13 3 -23 3 -23 0z"/>
<path d="M6425 1764 c-86 -54 -401 -210 -512 -254 -46 -18 -83 -36 -83 -40 0
-5 33 -43 73 -86 l73 -78 127 68 c128 70 247 157 394 292 l82 75 -38 34 c-21
19 -40 35 -42 34 -2 -1 -35 -21 -74 -45z"/>
<path d="M1620 1756 c8 -8 66 -55 129 -105 124 -99 238 -163 375 -210 100 -35
115 -38 71 -14 -16 9 -97 56 -178 105 -81 49 -153 85 -159 82 -6 -4 -8 -3 -5
3 4 6 -21 29 -56 51 -73 46 -199 109 -177 88z"/>
<path d="M2325 1694 c93 -46 144 -55 165 -29 7 8 9 15 4 16 -5 0 -16 2 -24 4
-8 2 -30 6 -49 10 -19 3 -37 8 -41 10 -4 2 -26 7 -49 10 -23 3 -51 9 -61 15
-10 5 -22 10 -27 9 -4 0 32 -20 82 -45z"/>
<path d="M6535 1674 l-60 -56 63 48 c34 26 62 51 62 55 0 13 -1 13 -65 -47z"/>
<path d="M6535 1643 c-44 -35 -126 -95 -182 -134 -102 -69 -152 -114 -77 -69
140 85 354 236 354 250 0 23 -21 13 -95 -47z"/>
<path d="M1859 1652 c14 -11 38 -27 55 -37 l31 -17 -24 20 c-14 11 -38 27 -55
37 l-31 17 24 -20z"/>
<path d="M2491 1646 l-23 -24 84 -66 c127 -102 148 -114 206 -119 28 -3 52 -2
52 1 -1 4 -54 47 -118 95 -64 48 -131 99 -148 112 l-31 25 -22 -24z"/>
<path d="M2579 1641 c19 -17 79 -65 133 -106 l98 -75 0 85 0 85 -30 1 c-16 1
-33 2 -37 3 -5 1 -42 8 -83 15 -41 7 -84 15 -95 17 -15 4 -11 -3 14 -25z"/>
<path d="M2058 1648 c11 -14 92 -62 92 -55 0 2 -23 19 -52 36 -28 18 -47 26
-40 19z"/>
<path d="M3325 1619 l-19 -41 -115 6 c-63 4 -124 9 -135 11 -12 2 -46 6 -76 9
-30 2 -79 8 -108 12 l-53 7 2 -87 c2 -68 6 -86 18 -86 8 0 22 -6 30 -14 30
-26 144 -48 194 -36 124 27 457 152 457 171 0 9 -116 71 -156 83 -17 5 -24 -1
-39 -35z"/>
<path d="M5523 1617 c-40 -17 -73 -34 -73 -38 0 -3 58 -29 128 -57 113 -45
179 -59 204 -45 13 7 -119 159 -139 159 -10 1 -25 3 -33 6 -8 3 -48 -8 -87
-25z"/>
<path d="M6520 1579 c-47 -33 -129 -88 -182 -121 -60 -36 -98 -66 -98 -76 0
-10 -3 -27 -6 -40 -6 -19 7 -14 97 40 56 35 123 83 148 108 45 44 136 150 129
150 -2 0 -41 -27 -88 -61z"/>
<path d="M1980 1607 c0 -11 103 -66 113 -60 7 3 9 2 4 -2 -7 -8 205 -140 298
-185 22 -10 127 -49 233 -85 106 -36 200 -68 210 -72 64 -22 -609 308 -713
350 -71 29 -133 54 -137 55 -5 2 -8 2 -8 -1z"/>
<path d="M1950 1596 c0 -3 9 -10 20 -16 11 -6 20 -8 20 -6 0 3 -9 10 -20 16
-11 6 -20 8 -20 6z"/>
<path d="M2080 1590 c8 -5 20 -10 25 -10 6 0 3 5 -5 10 -8 5 -19 10 -25 10 -5
0 -3 -5 5 -10z"/>
<path d="M5295 1528 c-157 -57 -276 -93 -470 -143 -94 -24 -170 -49 -170 -55
0 -6 37 -35 83 -64 94 -61 64 -60 312 -9 258 52 739 203 650 203 -8 0 -76 25
-150 55 -74 30 -137 55 -140 54 -3 0 -54 -19 -115 -41z"/>
<path d="M2030 1546 c0 -3 9 -10 20 -16 11 -6 20 -8 20 -6 0 3 -9 10 -20 16
-11 6 -20 8 -20 6z"/>
<path d="M3445 1515 c-79 -39 -334 -125 -367 -125 -52 0 9 -20 181 -59 269
-62 756 -149 767 -138 2 2 -33 30 -78 63 -46 32 -147 109 -225 171 -102 80
-147 110 -161 106 -11 -2 -23 0 -26 6 -9 15 -10 14 -91 -24z"/>
<path d="M3605 1543 c58 -56 471 -363 488 -363 5 0 -7 19 -27 43 -20 23 -75
91 -124 150 -95 118 -74 105 -247 152 -33 9 -69 19 -80 22 -13 3 -16 2 -10 -4z"/>
<path d="M3920 1428 c56 -79 185 -223 208 -233 12 -5 22 -13 22 -17 0 -13 256
-9 429 7 232 22 225 17 135 76 -48 31 -82 48 -93 44 -24 -7 -51 4 -51 20 0 9
-18 16 -47 20 -101 13 -383 67 -501 95 -67 17 -125 30 -128 30 -3 0 9 -19 26
-42z"/>
<path d="M2105 1398 c103 -66 147 -92 108 -62 -35 25 -27 35 13 18 20 -8 40
-14 45 -12 7 2 -183 89 -251 115 -8 3 30 -23 85 -59z"/>
<path d="M5756 1438 c-21 -28 -126 -278 -117 -278 8 0 142 57 245 104 l79 36
-74 79 c-79 84 -105 95 -133 59z"/>
<path d="M2441 1446 c11 -10 405 -218 492 -259 56 -26 174 -68 280 -98 176
-50 468 -121 474 -115 2 2 -50 22 -114 46 -136 50 -431 173 -612 254 -68 31
-128 53 -134 49 -5 -3 -15 0 -21 8 -6 8 -76 35 -156 61 -130 42 -221 65 -209
54z"/>
<path d="M2680 1400 c47 -17 87 -30 90 -30 3 0 -15 14 -40 30 -34 22 -56 30
-90 30 -45 -1 -44 -1 40 -30z"/>
<path d="M5575 1384 c-176 -60 -384 -117 -567 -154 -84 -17 -154 -32 -155 -34
-12 -12 334 -176 370 -176 31 0 360 113 377 130 16 16 120 250 120 271 0 13 0
13 -145 -37z"/>
<path d="M2765 1395 c38 -31 45 -31 45 0 0 22 -4 25 -37 25 l-38 -1 30 -24z"/>
<path d="M6113 1362 c-56 -31 -98 -59 -92 -60 9 -4 209 105 209 114 0 9 -19 1
-117 -54z"/>
<path d="M2830 1383 c0 -19 5 -23 33 -22 17 0 41 4 51 8 17 6 15 9 -14 21 -53
22 -70 20 -70 -7z"/>
<path d="M2948 1383 c7 -3 16 -2 19 1 4 3 -2 6 -13 5 -11 0 -14 -3 -6 -6z"/>
<path d="M6121 1330 c-47 -26 -90 -55 -96 -64 -7 -9 -16 -16 -21 -16 -10 0
-79 -80 -69 -80 4 0 65 30 136 66 128 65 149 83 149 130 0 20 -6 18 -99 -36z"/>
<path d="M2991 1365 c25 -25 503 -240 738 -332 187 -73 173 -73 351 -11 146
51 143 47 61 101 -39 26 -82 47 -96 47 -79 0 -574 93 -853 161 -150 36 -213
47 -201 34z"/>
<path d="M2320 1350 c8 -5 20 -10 25 -10 6 0 3 5 -5 10 -8 5 -19 10 -25 10 -5
0 -3 -5 5 -10z"/>
<path d="M2910 1353 c-78 -9 -73 -12 315 -175 301 -127 544 -214 595 -215 25
-1 38 1 30 4 -161 57 -474 192 -714 307 -98 47 -181 85 -185 84 -3 0 -22 -3
-41 -5z"/>
<path d="M2295 1291 c9 -16 86 -58 120 -66 16 -3 28 -5 25 -2 -14 13 -151 77
-145 68z"/>
<path d="M5890 1249 c-47 -22 -134 -61 -193 -86 -59 -25 -106 -47 -104 -50 11
-10 387 153 387 168 0 12 7 14 -90 -32z"/>
<path d="M2570 1266 c32 -18 160 -60 166 -54 2 3 -33 18 -78 33 -110 37 -117
39 -88 21z"/>
<path d="M2451 1266 c3 -4 238 -92 294 -110 11 -4 -7 7 -40 24 -78 40 -275
107 -254 86z"/>
<path d="M5890 1214 c-41 -19 -138 -60 -215 -91 -117 -47 -199 -91 -249 -134
-27 -24 406 128 453 158 30 19 104 104 89 103 -2 -1 -37 -17 -78 -36z"/>
<path d="M2530 1203 c54 -24 175 -64 195 -62 5 0 -46 20 -115 45 -68 24 -127
44 -130 43 -3 0 20 -12 50 -26z"/>
<path d="M2752 1205 c8 -8 141 -45 145 -41 4 4 -128 46 -143 46 -4 0 -5 -2 -2
-5z"/>
<path d="M2540 1154 c137 -65 274 -121 409 -168 144 -50 202 -59 80 -12 -41
16 -158 64 -261 108 -174 73 -269 108 -293 108 -5 -1 24 -17 65 -36z"/>
<path d="M2740 1184 c0 -2 39 -23 88 -45 85 -40 214 -84 337 -115 33 -8 69
-17 80 -20 11 -3 -11 13 -49 36 -38 22 -103 50 -145 61 -74 20 -212 58 -278
78 -18 5 -33 8 -33 5z"/>
<path d="M4734 1184 c-24 -10 -317 -30 -436 -29 -69 0 -124 -3 -122 -6 2 -4
34 -25 71 -47 60 -35 83 -43 198 -61 187 -30 278 -39 472 -47 163 -6 263 -1
263 14 0 4 -33 20 -73 36 -39 15 -120 55 -179 87 -80 45 -116 59 -145 58 -21
0 -43 -3 -49 -5z"/>
<path d="M2918 1153 c7 -3 16 -2 19 1 4 3 -2 6 -13 5 -11 0 -14 -3 -6 -6z"/>
<path d="M5910 1140 c-8 -5 -10 -10 -5 -10 6 0 17 5 25 10 8 5 11 10 5 10 -5
0 -17 -5 -25 -10z"/>
<path d="M2740 1112 c14 -10 459 -190 490 -199 8 -2 -55 32 -140 75 -137 70
-207 97 -340 128 -18 4 -21 3 -10 -4z"/>
<path d="M5775 1084 c-33 -14 -118 -45 -190 -70 -71 -24 -123 -44 -114 -44 30
0 361 118 378 136 10 10 -18 1 -74 -22z"/>
<path d="M5400 1055 c-69 -24 -119 -44 -112 -44 18 -1 235 69 247 80 15 15 -3
10 -135 -36z"/>
<path d="M3266 1021 c54 -29 107 -47 213 -71 79 -17 145 -29 148 -26 4 3 -1 6
-10 6 -9 0 -105 29 -213 65 -108 36 -199 65 -203 65 -3 0 26 -18 65 -39z"/>
<path d="M4286 1039 c10 -12 55 -48 98 -80 68 -51 85 -59 123 -59 23 0 43 3
43 8 -1 4 -24 18 -52 32 -29 14 -84 44 -124 66 -40 23 -81 44 -90 48 -16 6
-15 4 2 -15z"/>
<path d="M4177 1039 c-9 -6 -69 -27 -133 -48 l-115 -37 121 -39 c111 -35 129
-38 218 -36 53 2 114 6 134 9 l37 7 -100 78 c-99 76 -126 87 -162 66z"/>
<path d="M5383 1021 c-44 -15 -88 -33 -97 -40 -8 -7 -21 -11 -28 -9 -7 3 -33
-2 -58 -10 -82 -26 -264 -72 -284 -72 -11 0 -16 -3 -13 -6 12 -13 380 55 444
81 35 15 143 86 128 84 -6 -1 -47 -13 -92 -28z"/>
<path d="M3205 954 c175 -89 208 -100 380 -128 55 -9 114 -19 130 -22 17 -2
-24 16 -90 41 -66 25 -147 56 -180 70 -48 20 -295 96 -390 120 -11 3 57 -34
150 -81z"/>
<path d="M4360 1037 c0 -3 51 -33 114 -66 l114 -61 108 9 c106 10 344 48 353
57 2 2 -61 4 -140 4 -162 0 -473 33 -533 56 -9 3 -16 4 -16 1z"/>
<path d="M3421 1006 c4 -4 404 -119 451 -130 14 -3 34 -9 45 -12 10 -3 -2 6
-27 21 -43 26 -79 36 -347 99 -112 26 -130 29 -122 22z"/>
<path d="M5080 964 c-92 -23 -270 -52 -365 -60 l-90 -7 40 -14 c42 -15 74 -13
205 13 82 16 302 73 309 80 8 8 -45 2 -99 -12z"/>
<path d="M3855 941 c-16 -7 -9 -10 30 -16 28 -4 66 -11 85 -16 67 -17 64 -7
-4 17 -75 26 -81 27 -111 15z"/>
<path d="M5350 940 c-57 -12 -206 -59 -190 -59 14 -1 174 39 235 58 36 11 6
12 -45 1z"/>
<path d="M3490 917 c6 -6 257 -99 310 -115 48 -14 112 -22 108 -14 -30 59 -28
58 -106 71 -105 18 -273 51 -297 58 -11 3 -18 3 -15 0z"/>
<path d="M3938 880 c46 -27 70 -33 180 -45 70 -8 136 -14 147 -14 45 1 -68 32
-198 54 -75 13 -147 27 -160 30 -12 4 2 -8 31 -25z"/>
<path d="M4516 881 c-6 -9 88 -61 109 -61 13 0 51 38 44 44 -26 21 -143 35
-153 17z"/>
<path d="M5068 883 c7 -3 16 -2 19 1 4 3 -2 6 -13 5 -11 0 -14 -3 -6 -6z"/>
<path d="M4435 874 c-11 -2 -60 -6 -110 -10 l-90 -7 60 -18 c61 -19 288 -32
278 -17 -2 5 -9 8 -14 8 -5 0 -27 11 -49 25 -22 14 -43 24 -47 24 -5 -1 -17
-3 -28 -5z"/>
<path d="M4940 869 c-108 -13 -119 -19 -20 -12 47 3 96 9 110 14 33 10 9 9
-90 -2z"/>
<path d="M3900 843 c0 -2 7 -17 14 -32 14 -27 19 -28 107 -34 51 -4 115 -7
143 -7 50 1 50 1 -44 26 -107 29 -220 53 -220 47z"/>
<path d="M4665 830 c-18 -20 -17 -20 21 -19 21 0 59 4 84 8 l45 7 -59 12 c-75
15 -70 16 -91 -8z"/>
<path d="M4158 803 c7 -3 16 -2 19 1 4 3 -2 6 -13 5 -11 0 -14 -3 -6 -6z"/>
<path d="M4215 789 c17 -5 80 -12 140 -14 100 -4 103 -3 35 5 -149 16 -207 20
-175 9z"/>
<path d="M4508 793 c12 -2 32 -2 45 0 12 2 2 4 -23 4 -25 0 -35 -2 -22 -4z"/>
</g>
</svg>
